<?xml version="1.0" encoding="UTF-8"?>
<svg viewBox="0 0 1026 1020" version="1.1" xmlns="http://www.w3.org/2000/svg" >
<path d="M0 0 C338.58 0 677.16 0 1026 0 C1026 336.6 1026 673.2 1026 1020 C687.42 1020 348.84 1020 0 1020 C0 683.4 0 346.8 0 0 Z " fill="none" transform="translate(0,0)"/>
<path d="M0 0 C2.40418631 0.00316821 4.80714498 -0.02046193 7.21118164 -0.0456543 C15.32804153 -0.07942764 23.20502612 0.34610876 31.22485352 1.64770508 C31.95107407 1.76417892 32.67729462 1.88065277 33.42552185 2.00065613 C38.14060408 2.84886598 42.11672818 4.32425394 46.47094727 6.31567383 C48.84652766 6.95658203 48.84652766 6.95658203 51.03344727 7.31567383 C54.91132301 8.10040417 57.92575416 9.54307728 61.47094727 11.31567383 C62.96414326 11.65921711 64.46521204 11.96959369 65.97094727 12.25317383 C70.23614867 13.11189158 72.87831282 14.82282544 76.47094727 17.31567383 C77.99626558 17.94316839 79.53587352 18.53645628 81.08422852 19.10473633 C86.33810536 21.16435136 90.97891611 23.7749403 95.72094727 26.81567383 C96.53942139 27.33685791 97.35789551 27.85804199 98.20117188 28.39501953 C105.31806213 33.02819084 111.72128781 38.23639957 117.9777832 43.9621582 C119.34992756 45.20597251 120.75667167 46.41133462 122.16625977 47.61254883 C133.11424362 57.01614625 141.53078878 68.35040529 149.47094727 80.31567383 C150.58663086 81.86448242 150.58663086 81.86448242 151.72485352 83.44458008 C153.47094727 86.31567383 153.47094727 86.31567383 153.47094727 90.31567383 C154.13094727 90.31567383 154.79094727 90.31567383 155.47094727 90.31567383 C157.50530257 94.04532522 158.47094727 95.98472425 158.47094727 100.31567383 C159.13094727 100.31567383 159.79094727 100.31567383 160.47094727 100.31567383 C165.80095515 111.84946137 169.05060699 123.81295257 170.78344727 136.39770508 C171.77512818 139.16426945 172.91783195 139.84868201 175.47094727 141.31567383 C178.17324381 141.61801709 180.65532538 141.75665447 183.35766602 141.75708008 C184.13294144 141.77028793 184.90821686 141.78349579 185.70698547 141.79710388 C188.19084039 141.83791508 190.67433429 141.85957981 193.15844727 141.87817383 C226.61876542 142.20939786 226.61876542 142.20939786 238.47094727 147.31567383 C239.22633789 147.63793945 239.98172852 147.96020508 240.76000977 148.29223633 C242.22380226 148.93356348 243.68300589 149.58558584 245.13500977 150.25317383 C247.02450877 151.1126115 248.93622217 151.92310303 250.85375977 152.71801758 C267.07907537 159.88449067 280.88528245 171.61339332 288.28344727 188.00317383 C294.88483808 206.41757977 294.88483808 206.41757977 294.42016602 216.43676758 C294.38026978 217.96472432 294.3419052 219.49272169 294.30493164 221.02075195 C294.23699593 223.38918229 294.15834387 225.75549138 294.05273438 228.12255859 C293.36150255 238.88167974 293.36150255 238.88167974 297.49829102 248.51098633 C299.39493975 250.54651271 299.39493975 250.54651271 301.47094727 252.31567383 C302.42698853 253.17286011 302.42698853 253.17286011 303.40234375 254.04736328 C305.33754028 255.68626412 307.323522 257.22369037 309.34594727 258.75317383 C322.01659357 268.73857308 331.41299376 280.23077802 337.61157227 295.29223633 C338.45456561 297.27710248 339.43450777 299.1136649 340.47094727 301.00317383 C350.77697846 321.3708244 350.14267445 349.71852927 344.47094727 371.31567383 C344.22731445 372.37786133 343.98368164 373.44004883 343.73266602 374.53442383 C336.44425168 402.44456024 314.01454414 426.83339758 289.84594727 441.50317383 C278.83806855 447.58712473 263.31973096 455.11872281 250.47094727 454.31567383 C250.47094727 454.97567383 250.47094727 455.63567383 250.47094727 456.31567383 C244.74243018 457.29594848 239.19720447 457.46085282 233.39233398 457.45751953 C231.91055161 457.46273117 231.91055161 457.46273117 230.39883423 457.4680481 C228.26378816 457.47537352 226.12873464 457.48073593 223.99367905 457.48433876 C220.61438635 457.49153224 217.23523648 457.50721774 213.85598755 457.52568054 C204.25158566 457.57803409 194.64726636 457.62617 185.04272461 457.64160156 C179.16008893 457.65167124 173.27781958 457.68096082 167.39532852 457.72292137 C165.15545544 457.73524093 162.9155307 457.7403509 160.67562485 457.73812294 C157.54694044 457.73577521 154.41931318 457.75789374 151.29077148 457.78564453 C150.36596985 457.77904312 149.44116821 457.77244171 148.48834229 457.76564026 C144.29870643 457.82673367 142.03886946 457.96849572 138.39431763 460.19645691 C136.07116626 462.7561624 135.84606112 463.90211905 135.97094727 467.31567383 C135.98125977 468.16129883 135.99157227 469.00692383 136.00219727 469.87817383 C136.57662632 472.8652049 137.29936444 474.18089749 139.47094727 476.31567383 C144.69720732 478.56308824 149.74835424 478.73835119 155.34594727 478.94067383 C156.22508789 478.9793457 157.10422852 479.01801758 158.01000977 479.05786133 C160.16333519 479.15148417 162.31711141 479.23463842 164.47094727 479.31567383 C164.49624206 486.11498218 164.51379075 492.91427846 164.52587891 499.71362305 C164.5309167 502.02808078 164.53774707 504.34253533 164.54638672 506.65698242 C164.5584765 509.97811673 164.56418102 513.29920908 164.56860352 516.62036133 C164.5737648 517.65998016 164.57892609 518.699599 164.58424377 519.77072144 C164.58431931 520.73156647 164.58439484 521.6924115 164.58447266 522.68237305 C164.58669327 523.53064667 164.58891388 524.37892029 164.59120178 525.25289917 C164.47094727 527.31567383 164.47094727 527.31567383 163.47094727 529.31567383 C163.12322085 531.24716259 162.81756535 533.1863089 162.53344727 535.12817383 C162.28785383 536.78954121 162.04164102 538.45082309 161.7902832 540.11132812 C161.54634993 541.79517636 161.32449087 543.48223692 161.11254883 545.17041016 C159.97491302 553.58827604 157.80077888 561.33881321 155.09594727 569.37817383 C154.70922852 570.55444336 154.32250977 571.73071289 153.92407227 572.94262695 C153.15494439 575.27711072 152.37974165 577.60960278 151.59814453 579.93994141 C150.85958086 582.15179322 150.13303864 584.36770387 149.41992188 586.58789062 C147.57464238 592.29900159 145.57376809 597.68943867 142.78344727 603.00317383 C142.44240967 603.66687988 142.10137207 604.33058594 141.75 605.0144043 C141.03026615 606.4101033 140.30635474 607.8036556 139.57836914 609.19506836 C138.46244147 611.33196161 137.36432556 613.47735295 136.26782227 615.62426758 C129.50018674 628.76747021 121.85844328 641.03605211 112.73266602 652.69799805 C111.86405015 653.81166847 111.00245036 654.93083514 110.14672852 656.05444336 C97.3345698 672.8457284 82.36516496 688.5725605 65.24682617 701.01489258 C63.21126917 702.50588071 61.2062253 704.03360848 59.20141602 705.56567383 C57.75005656 706.67044961 56.29824154 707.77462721 54.84594727 708.87817383 C54.17007568 709.3919458 53.4942041 709.90571777 52.79785156 710.43505859 C52.16145752 710.91257568 51.52506348 711.39009277 50.86938477 711.88208008 C50.30912598 712.30432861 49.74886719 712.72657715 49.17163086 713.16162109 C47.34194816 714.40321026 45.45450287 715.34377857 43.47094727 716.31567383 C43.46286041 715.73288666 43.45477356 715.15009949 43.44644165 714.5496521 C43.35955809 708.41612013 43.26003189 702.28288078 43.15356445 696.1496582 C43.11557135 693.86878421 43.08067014 691.58785632 43.04907227 689.30688477 C44.14584889 668.21539089 44.14584889 668.21539089 37.47094727 649.31567383 C37.05844727 648.26379883 36.64594727 647.21192383 36.22094727 646.12817383 C28.59531409 627.80331043 6.04662381 611.54074413 -11.52905273 603.31567383 C-11.52905273 602.65567383 -11.52905273 601.99567383 -11.52905273 601.31567383 C-12.50745117 601.06043945 -12.50745117 601.06043945 -13.50561523 600.80004883 C-14.37959961 600.55770508 -15.25358398 600.31536133 -16.15405273 600.06567383 C-17.01256836 599.83364258 -17.87108398 599.60161133 -18.75561523 599.36254883 C-21.52905273 598.31567383 -21.52905273 598.31567383 -24.33374023 596.40551758 C-28.09654599 593.94451382 -31.79356329 592.56109425 -36.02905273 591.12817383 C-36.7625293 590.86842773 -37.49600586 590.60868164 -38.25170898 590.34106445 C-42.32684747 588.93043959 -46.23402895 587.8797355 -50.52905273 587.31567383 C-50.52905273 586.65567383 -50.52905273 585.99567383 -50.52905273 585.31567383 C-51.35083008 585.25959961 -51.35083008 585.25959961 -52.18920898 585.20239258 C-58.70385385 584.66215374 -64.95328496 583.46254231 -71.32983398 582.03442383 C-83.89465819 579.65265168 -96.97590925 580.03974106 -109.71655273 580.00317383 C-110.68428619 579.99955841 -111.65201965 579.99594299 -112.64907837 579.99221802 C-128.03979612 579.96914348 -143.54945083 580.31962503 -158.52905273 584.31567383 C-158.85905273 584.64567383 -159.18905273 584.97567383 -159.52905273 585.31567383 C-161.22079209 585.60025662 -162.91899005 585.84655164 -164.61889648 586.07739258 C-172.35891298 587.32379228 -179.68207544 589.63764487 -187.09155273 592.12817383 C-187.80604584 592.36666046 -188.52053894 592.60514709 -189.25668335 592.8508606 C-224.42334941 604.68231252 -255.75841516 623.84832095 -283.52905273 648.31567383 C-284.32698242 649.00274414 -285.12491211 649.68981445 -285.94702148 650.39770508 C-298.0913986 661.03674902 -309.65799044 672.52816131 -319.52905273 685.31567383 C-320.15295898 686.07235352 -320.77686523 686.8290332 -321.41967773 687.60864258 C-346.5140453 717.04068665 -346.5140453 717.04068665 -358.68727112 752.01068115 C-358.69705994 752.95015091 -358.70684875 753.88962067 -358.7169342 754.8575592 C-358.72268967 755.88111008 -358.72844513 756.90466095 -358.734375 757.95922852 C-358.7442746 759.04245895 -358.75417419 760.12568939 -358.76437378 761.241745 C-358.79597148 764.82365734 -358.8207395 768.40558295 -358.84545898 771.98754883 C-358.86602999 774.47048284 -358.88702651 776.95341337 -358.90843201 779.43634033 C-358.95799429 785.30460926 -359.00326357 791.17289902 -359.04645437 797.04121804 C-359.10072215 804.37883376 -359.16165294 811.71639047 -359.22241211 819.05395508 C-359.32997502 832.14115527 -359.43160938 845.22839458 -359.52905273 858.31567383 C-363.71365267 856.97595698 -367.12341973 855.5148556 -370.81030273 853.11254883 C-371.80570068 852.46914551 -372.80109863 851.82574219 -373.82666016 851.1628418 C-374.88344971 850.47077637 -375.94023926 849.77871094 -377.02905273 849.06567383 C-378.7143587 847.9742072 -380.39967028 846.88274896 -382.085495 845.79208374 C-383.80045387 844.68165058 -385.5136969 843.56860547 -387.22680664 842.45532227 C-392.03820562 839.33783737 -396.87595618 836.26254864 -401.71655273 833.19067383 C-403.51872293 832.04497711 -405.32080634 830.89914388 -407.12280273 829.75317383 C-408.0109668 829.18856445 -408.89913086 828.62395508 -409.81420898 828.04223633 C-412.58450223 826.28040955 -415.35379499 824.51702021 -418.12280273 822.75317383 C-429.12997205 815.74233567 -440.15092991 808.75398401 -451.18920898 801.79223633 C-453.58462216 800.28060664 -455.97887313 798.76715178 -458.37280273 797.25317383 C-459.17524414 796.74592773 -459.97768555 796.23868164 -460.80444336 795.71606445 C-462.3947893 794.71034771 -463.98464478 793.70385493 -465.57397461 792.6965332 C-469.4583977 790.23824365 -473.3544389 787.80311392 -477.27905273 785.40942383 C-478.40114136 784.72130615 -478.40114136 784.72130615 -479.54589844 784.01928711 C-480.96258088 783.15216465 -482.38285571 782.29087648 -483.80712891 781.4362793 C-485.41517101 780.44955923 -486.9779479 779.38968021 -488.52905273 778.31567383 C-488.52905273 777.65567383 -488.52905273 776.99567383 -488.52905273 776.31567383 C-489.51905273 776.31567383 -490.50905273 776.31567383 -491.52905273 776.31567383 C-490.83580977 772.27678006 -488.84170816 768.95411629 -486.84155273 765.44067383 C-486.45 764.75013916 -486.05844727 764.05960449 -485.6550293 763.34814453 C-466.92180452 730.75820097 -444.8809683 699.27119195 -419.03051758 671.91870117 C-417.46723604 670.24967571 -415.92749628 668.56136173 -414.39233398 666.86645508 C-409.5920502 661.57581167 -404.80216169 656.43847804 -399.31030273 651.84692383 C-397.50470535 650.29474362 -395.86824783 648.65469704 -394.21655273 646.94067383 C-390.150431 642.8198509 -385.68034504 639.25516693 -381.16577148 635.64038086 C-379.41755923 634.22543461 -377.69122239 632.7865513 -375.96655273 631.34301758 C-346.19298089 606.54636068 -312.6096272 587.33263305 -276.52905273 573.31567383 C-275.70969238 572.99260254 -274.89033203 572.66953125 -274.04614258 572.33666992 C-252.74378295 564.03446159 -230.1391019 558.92108911 -207.59155273 555.37817383 C-205.70291504 555.07919189 -205.70291504 555.07919189 -203.77612305 554.77416992 C-190.18253947 552.76606753 -176.67670447 552.28396842 -162.95874023 552.10473633 C-161.857332 552.09028976 -160.75592377 552.0758432 -159.62113953 552.06095886 C-155.05174032 552.00385041 -150.48247484 551.94881855 -145.9128418 551.91430664 C-142.53201321 551.88671192 -139.15182213 551.84092285 -135.77124023 551.79223633 C-134.74513641 551.78898346 -133.71903259 551.78573059 -132.66183472 551.78237915 C-126.04171276 551.66880692 -120.4396748 551.2262959 -115.52905273 546.31567383 C-115.28692401 544.33438875 -115.28692401 544.33438875 -115.40405273 542.19067383 C-115.46592773 540.27254883 -115.46592773 540.27254883 -115.52905273 538.31567383 C-116.53967773 537.67629883 -117.55030273 537.03692383 -118.59155273 536.37817383 C-119.44426758 535.83870117 -119.44426758 535.83870117 -120.31420898 535.28833008 C-126.88261215 532.40379324 -134.93004918 533.00790778 -141.96655273 532.75317383 C-143.0796582 532.70999023 -144.19276367 532.66680664 -145.33959961 532.62231445 C-148.06931118 532.51687495 -150.79910417 532.41475353 -153.52905273 532.31567383 C-152.89099064 527.84923917 -151.83635635 525.16117986 -149.52905273 521.31567383 C-147.48935173 511.66843934 -147.0096559 500.3111506 -151.52905273 491.31567383 C-164.90590023 470.8620425 -188.29328559 463.22027987 -210.95237732 458.05047607 C-216.63545058 456.88292954 -222.3204623 456.19408853 -228.09155273 455.62817383 C-228.7361142 455.56463715 -229.38067566 455.50110046 -230.04476929 455.43563843 C-249.81803949 453.55126662 -269.69296468 454.10123418 -289.52905273 454.31567383 C-296.22778613 454.38731353 -302.92630585 454.44798471 -309.62533569 454.48348999 C-312.2547714 454.50254494 -314.88348628 454.53998872 -317.51269531 454.57861328 C-330.55089139 454.69849317 -342.38479045 452.89011944 -354.84155273 448.87817383 C-356.07518555 448.48758789 -357.30881836 448.09700195 -358.57983398 447.69458008 C-366.86871872 444.86210111 -374.39390772 441.55413291 -381.77905273 436.81567383 C-382.59897705 436.29086426 -383.41890137 435.76605469 -384.26367188 435.2253418 C-408.91556668 419.11446915 -431.85977892 391.83491645 -439.18920898 362.69067383 C-439.38836914 361.51504883 -439.38836914 361.51504883 -439.59155273 360.31567383 C-440.44693865 355.62530771 -441.61834676 351.15572425 -443.07495117 346.61328125 C-443.74301754 343.23308095 -443.71233962 339.86153655 -443.73217773 336.42895508 C-443.73787781 335.65367966 -443.74357788 334.87840424 -443.74945068 334.07963562 C-443.75889173 332.43298702 -443.76543111 330.78631959 -443.76928711 329.13964844 C-443.77884467 326.68168312 -443.80981085 324.22460953 -443.84155273 321.7668457 C-443.95006518 305.44811686 -442.29841365 287.69839431 -434.44702148 273.10864258 C-433.16571085 270.60599756 -432.3352324 268.00293938 -431.52905273 265.31567383 C-430.86905273 265.31567383 -430.20905273 265.31567383 -429.52905273 265.31567383 C-429.44204102 264.09170898 -429.44204102 264.09170898 -429.35327148 262.84301758 C-428.25601457 258.14717399 -426.03174265 254.83456064 -423.34155273 250.87817383 C-422.81198975 250.09265137 -422.28242676 249.30712891 -421.73681641 248.49780273 C-416.09976161 240.35949471 -409.57071538 233.24800775 -402.52905273 226.31567383 C-401.75045898 225.53836914 -400.97186523 224.76106445 -400.16967773 223.96020508 C-393.66308527 217.83275616 -386.05127518 213.09043754 -378.52905273 208.31567383 C-377.6537793 207.75364258 -376.77850586 207.19161133 -375.87670898 206.61254883 C-373.48974452 205.29395947 -371.34915902 204.56290664 -368.71655273 203.87817383 C-365.49873243 202.9696128 -362.65422398 201.97148704 -359.71655273 200.37817383 C-349.97442227 195.39249529 -340.8251297 194.01967944 -330.02905273 193.31567383 C-314.73236594 192.83656127 -314.73236594 192.83656127 -301.93920898 185.62817383 C-299.38518342 182.33569521 -297.55393761 178.79029696 -295.71655273 175.06567383 C-292.32909079 168.49034381 -288.51136858 162.82194259 -283.52905273 157.31567383 C-282.86518555 156.5705957 -282.20131836 155.82551758 -281.51733398 155.05786133 C-265.83242777 138.41620482 -243.56260937 127.05188465 -220.5793457 126.20727539 C-217.35354734 126.14630755 -214.13040259 126.13008971 -210.90405273 126.12817383 C-209.81092773 126.11592773 -208.71780273 126.10368164 -207.59155273 126.09106445 C-201.77886466 126.08050872 -197.11775998 126.63201975 -191.52905273 128.31567383 C-187.88856744 128.6917482 -184.24837087 128.8206962 -180.59155273 128.94067383 C-179.13652344 128.99868164 -179.13652344 128.99868164 -177.65209961 129.05786133 C-175.27793198 129.15142458 -172.90375782 129.23716591 -170.52905273 129.31567383 C-167.92522258 124.38914067 -165.84559077 119.60234234 -164.21655273 114.25317383 C-153.67389488 81.27155455 -131.13344471 52.76578287 -103.52905273 32.31567383 C-102.65700195 31.66912842 -102.65700195 31.66912842 -101.76733398 31.00952148 C-84.40087016 18.34078369 -64.42319224 10.04412232 -43.71655273 4.62817383 C-42.95914795 4.42538818 -42.20174316 4.22260254 -41.42138672 4.01367188 C-27.83692068 0.63273078 -13.93769373 -0.03818546 0 0 Z " fill="#FCFDFD" transform="translate(605.529052734375,63.684326171875)"/>
<path d="M0 0 C0 0.66 0 1.32 0 2 C1.92005859 2.16048828 1.92005859 2.16048828 3.87890625 2.32421875 C9.1039347 2.90772965 13.92989841 4.25173941 18.9375 5.8125 C19.76701172 6.06064453 20.59652344 6.30878906 21.45117188 6.56445312 C48.81306804 14.91971746 73.70328596 29.01945401 95 48 C96.45816062 49.25020147 97.91647021 50.50022924 99.375 51.75 C106.70523187 58.23855598 112.96084779 65.29188081 119 73 C119.42829102 73.54124512 119.85658203 74.08249023 120.29785156 74.64013672 C130.9638673 88.22038572 139.3341813 102.94913396 145.5625 119.0625 C145.88500732 119.89410645 146.20751465 120.72571289 146.53979492 121.58251953 C148.75961379 127.62105197 150.02214405 133.64808297 151 140 C151.57741943 139.98952637 152.15483887 139.97905273 152.74975586 139.96826172 C170.9449664 139.6835392 187.54194747 140.70905719 205 146 C205.886875 146.25910156 206.77375 146.51820313 207.6875 146.78515625 C212.5717601 148.29498665 216.60026899 150.41192294 221 153 C223.26985894 153.76040572 223.26985894 153.76040572 225 154 C225 154.66 225 155.32 225 156 C225.71027344 156.25910156 226.42054688 156.51820313 227.15234375 156.78515625 C248.37772269 165.8401533 262.55974201 185.31574108 271 206 C275.15974352 216.41891872 277.27462758 226.73153648 276.80078125 237.9453125 C275.85505564 248.86793893 275.85505564 248.86793893 278.71484375 259.07421875 C281.03466841 261.09266448 283.30498112 262.53037252 286 264 C287.36401552 265.08759571 288.69887175 266.2129036 290 267.375 C290.65226563 267.94992187 291.30453125 268.52484375 291.9765625 269.1171875 C300.48551707 277.03478615 306.9524643 286.15094247 313 296 C313.36512695 296.59409668 313.73025391 297.18819336 314.10644531 297.80029297 C331.31933938 326.41692802 334.99525124 359.97827859 327.5390625 392.1875 C325.50940169 400.21234633 322.63776791 407.58095908 319 415 C318.63777344 415.75974121 318.27554688 416.51948242 317.90234375 417.30224609 C312.17147337 429.22294215 305.34552614 439.75197944 297 450 C295.99259766 451.24910156 295.99259766 451.24910156 294.96484375 452.5234375 C291.04910712 457.17950703 286.69869542 461.14798508 282 465 C281.51144531 465.40621582 281.02289062 465.81243164 280.51953125 466.23095703 C267.45307359 477.0471682 253.5622715 485.29030732 238 492 C237.12601563 492.38929688 236.25203125 492.77859375 235.3515625 493.1796875 C216.30914598 500.92880968 195.86765989 500.51455964 175.6875 500.25 C172.98895578 500.22755077 170.29038577 500.21136232 167.59179688 500.1953125 C161.06087113 500.15178853 154.5305069 500.08530479 148 500 C148.01571045 501.54602905 148.01571045 501.54602905 148.03173828 503.12329102 C148.4010065 543.03437356 148.4010065 543.03437356 146 561 C145.90879883 561.7002832 145.81759766 562.40056641 145.72363281 563.12207031 C143.51628288 579.06920543 138.30580571 595.0081144 132.24926758 609.89135742 C131.04106036 612.89782655 129.90758811 615.92445287 128.77734375 618.9609375 C126.19543883 625.68246488 123.22457228 632.18373201 120.08081055 638.65673828 C119.19000776 640.49482548 118.31241191 642.33882439 117.43554688 644.18359375 C111.97510673 655.55754804 105.49804893 666.20867315 98.1875 676.5 C97.68323486 677.21212646 97.17896973 677.92425293 96.65942383 678.65795898 C91.80056578 685.42914477 86.50551632 691.75049499 81 698 C80.36449219 698.73476563 79.72898437 699.46953125 79.07421875 700.2265625 C77.95994896 701.51245546 76.83905261 702.79264247 75.7109375 704.06640625 C74.49629782 705.43911548 73.29442602 706.82316965 72.1015625 708.21484375 C61.81214187 720.01516443 50.12389198 730.28275775 37.66894531 739.72509766 C36.05421331 740.95858662 34.46025535 742.21912451 32.8671875 743.48046875 C20.84716214 752.95489977 8.01880938 761.22197475 -5 769.25 C-5.77174561 769.72816162 -6.54349121 770.20632324 -7.33862305 770.69897461 C-8.05187744 771.13346924 -8.76513184 771.56796387 -9.5 772.015625 C-10.1290625 772.40008789 -10.758125 772.78455078 -11.40625 773.18066406 C-13 774 -13 774 -15 774 C-15 774.66 -15 775.32 -15 776 C-16.24460783 776.67667998 -17.49596896 777.34094719 -18.75 778 C-19.44609375 778.37125 -20.1421875 778.7425 -20.859375 779.125 C-23 780 -23 780 -27 780 C-27.33 780.99 -27.66 781.98 -28 783 C-34.1118972 785.47076695 -40.95361279 786.25812039 -47.32421875 784.27734375 C-51.96230823 782.27802769 -56.29450122 779.72296789 -60.67578125 777.22265625 C-63.90439996 775.52424002 -67.26123967 774.26838665 -70.6640625 772.96484375 C-72.74224916 772.1064623 -74.57913637 771.15883088 -76.5 770 C-79.16910721 768.3910522 -81.83682399 767.23347263 -84.75 766.125 C-89.50831438 764.29376992 -93.81998185 761.94471276 -98.2578125 759.44921875 C-101.69693593 757.63167631 -105.22835346 756.24880261 -108.859375 754.8671875 C-111.41527143 753.8317696 -113.64388724 752.42606825 -116 751 C-117.96382526 750.22820859 -119.9390669 749.52063863 -121.9375 748.84375 C-124 748 -124 748 -126.3359375 746.5546875 C-129.35306091 744.79396152 -132.31533454 743.73818319 -135.625 742.625 C-145.71296803 739.10155171 -155.13241332 734.49017663 -164.640625 729.6484375 C-166.93237271 728.52388223 -169.26613957 727.48209576 -171.62890625 726.515625 C-174.8043675 725.08795528 -177.04378595 723.60578206 -179.6875 721.375 C-182.41205339 719.08114866 -184.40721067 717.44532473 -188 717 C-190.06669397 717.90833725 -190.06669397 717.90833725 -192 719 C-192.99 719 -193.98 719 -195 719 C-195 719.66 -195 720.32 -195 721 C-195.63164062 721.268125 -196.26328125 721.53625 -196.9140625 721.8125 C-209.73981927 727.43069893 -221.02831584 734.31345282 -232 743 C-232.82113281 743.61617187 -233.64226562 744.23234375 -234.48828125 744.8671875 C-250.44992003 757.22938985 -264.52878584 772.42627575 -276 789 C-276.4125 789.59441895 -276.825 790.18883789 -277.25 790.80126953 C-279.97732423 794.78347691 -282.53353396 798.85175335 -285 803 C-285.39251953 803.66016113 -285.78503906 804.32032227 -286.18945312 805.00048828 C-297.36188423 824.01221237 -306.56695354 844.18954687 -312.5625 865.4375 C-314.84536746 873.21517635 -317.78565988 880.65686736 -325 885 C-328.71480758 886.46790865 -332.52649301 887.50408774 -336.375 888.5625 C-348.69677044 892.13326606 -360.61622574 896.46268827 -372.58740234 901.05102539 C-373.2515918 901.30514191 -373.91578125 901.55925842 -374.60009766 901.82107544 C-376.40841645 902.51448811 -378.21477583 903.2130045 -380.02099609 903.91186523 C-386.55586821 906.29884483 -393.10150625 907.64293665 -399.734375 904.84765625 C-402.73345103 903.16800613 -405.61577452 901.37003287 -408.5 899.5 C-409.58095947 898.82509521 -410.66191895 898.15019043 -411.77563477 897.45483398 C-414.05322952 896.03156316 -416.32490079 894.60191379 -418.59033203 893.15966797 C-422.93394806 890.39931568 -427.32623415 887.71942647 -431.71655273 885.03417969 C-434.96180747 883.04762036 -438.20050412 881.05076581 -441.4375 879.05078125 C-445.8709458 876.31235951 -450.30847846 873.58077303 -454.75 870.85546875 C-464.49372941 864.87496182 -474.22662566 858.88342852 -483.875 852.75 C-494.49245368 846.00716746 -505.28973518 839.57164799 -516.10791016 833.15722656 C-554.13105838 810.60682487 -554.13105838 810.60682487 -557 802 C-557.0860059 800.46152103 -557.11499925 798.91951707 -557.10920715 797.37864685 C-557.1079483 796.42976089 -557.10668945 795.48087494 -557.10539246 794.50323486 C-557.09873062 793.46374695 -557.09206879 792.42425903 -557.08520508 791.35327148 C-557.08202271 790.25698929 -557.07884033 789.16070709 -557.07556152 788.03120422 C-557.06294128 784.39444572 -557.04206212 780.75780371 -557.01953125 777.12109375 C-557.01257421 775.87861437 -557.00561718 774.63613499 -556.99844933 773.35600471 C-556.96487957 767.45489368 -556.92715853 761.553833 -556.88308412 755.65279239 C-556.83248284 748.85938553 -556.79815974 742.06615362 -556.77790338 735.2725901 C-556.75913459 729.37515214 -556.71865294 723.47798167 -556.6706295 717.58070564 C-556.65332654 715.07982094 -556.642603 712.57888147 -556.63868141 710.07793999 C-556.63156927 706.56904188 -556.59957162 703.06117409 -556.56176758 699.55249023 C-556.5652269 698.52717194 -556.56868622 697.50185364 -556.57225037 696.44546509 C-556.42539922 687.18358751 -553.63979007 679.72242652 -548.25 672.1875 C-547.87786377 671.66599365 -547.50572754 671.1444873 -547.12231445 670.60717773 C-545.76517303 668.72508665 -544.3852527 666.86150267 -543 665 C-542.4107373 664.20561523 -541.82147461 663.41123047 -541.21435547 662.59277344 C-532.86398625 651.38176601 -524.30980939 640.43215541 -515 630 C-514.03562012 628.90643188 -514.03562012 628.90643188 -513.05175781 627.79077148 C-507.58727632 621.6417058 -501.91410083 615.72783335 -496.09863281 609.91333008 C-494.6279359 608.44044028 -493.16546466 606.95969735 -491.703125 605.47851562 C-485.47345712 599.21143506 -478.96316971 593.45058371 -472 588 C-471.31083496 587.45690186 -470.62166992 586.91380371 -469.91162109 586.35424805 C-448.76721451 569.87670234 -425.8079036 556.20034472 -401 546 C-399.59427734 545.38125 -399.59427734 545.38125 -398.16015625 544.75 C-373.24975679 533.88520597 -346.75529735 527.27231361 -320.125 522.25 C-319.0947168 522.05172607 -318.06443359 521.85345215 -317.00292969 521.64916992 C-300.6471951 518.65573775 -284.45406479 517.66806584 -267.84716797 517.73925781 C-264.8705624 517.75001604 -261.89455669 517.73926834 -258.91796875 517.7265625 C-248.71670714 517.7202288 -238.79904577 518.12232967 -228.69580078 519.57128906 C-224.73568972 520.03065985 -220.98196708 520.06946253 -217 520 C-223.77304424 512.94026605 -230.85383828 509.29813152 -240 506 C-241.02222656 505.61972656 -242.04445313 505.23945312 -243.09765625 504.84765625 C-261.82836329 498.69692841 -282.16151525 498.7395478 -301.671875 498.62890625 C-303.12397747 498.62052325 -303.12397747 498.62052325 -304.60541534 498.6119709 C-313.69997285 498.56614698 -322.79450709 498.56167631 -331.88916016 498.56420898 C-336.91843152 498.56426077 -341.94736231 498.54477801 -346.97653961 498.51487541 C-349.75127352 498.50431758 -352.52528029 498.51600616 -355.29998779 498.52870178 C-380.84265381 498.47733686 -404.68258034 492.35368479 -427 480 C-427.65129883 479.6400293 -428.30259766 479.28005859 -428.97363281 478.90917969 C-437.68199733 474.0309428 -445.48803308 468.61467225 -453 462 C-453.85207031 461.26910156 -454.70414062 460.53820312 -455.58203125 459.78515625 C-475.11496603 442.71259113 -488.49231594 420.94911822 -498 397 C-498.46277344 395.84628906 -498.92554688 394.69257813 -499.40234375 393.50390625 C-508.67307898 368.22776794 -509.58440006 340.17962353 -504 314 C-503.83371094 313.19256348 -503.66742188 312.38512695 -503.49609375 311.55322266 C-495.46960372 273.46455469 -471.85366084 237.4607888 -439 216 C-419.8570943 203.86687052 -400.64667615 195.59541142 -378 192.75 C-376.71738281 192.57726562 -375.43476563 192.40453125 -374.11328125 192.2265625 C-363.97241689 190.89140168 -363.97241689 190.89140168 -359 191 C-358.87818359 190.21496094 -358.87818359 190.21496094 -358.75390625 189.4140625 C-357.70439482 186.05345077 -355.85177488 183.29601824 -353.9375 180.375 C-353.53120361 179.75254395 -353.12490723 179.13008789 -352.70629883 178.48876953 C-334.78915022 151.39488536 -308.93990752 133.24067606 -277.1875 126.1484375 C-260.29623582 122.89465941 -242.90987711 122.71766683 -226 126 C-225.82404297 125.44820068 -225.64808594 124.89640137 -225.46679688 124.32788086 C-216.92335986 98.05346603 -201.98477891 75.85261607 -183 56 C-182.12601562 55.07316406 -181.25203125 54.14632812 -180.3515625 53.19140625 C-151.06553418 22.91772595 -111.40642274 4.86762413 -70 -1 C-69.32533691 -1.10296387 -68.65067383 -1.20592773 -67.95556641 -1.31201172 C-45.28440339 -4.71188052 -22.58577796 -3.33247319 0 0 Z M-85.3125 25.625 C-86.27687988 25.88369873 -87.24125977 26.14239746 -88.23486328 26.40893555 C-124.45895189 36.49030774 -155.91123642 57.29245753 -179 87 C-179.7940625 88.01578125 -180.588125 89.0315625 -181.40625 90.078125 C-192.31469701 104.44630018 -199.98396083 120.45180367 -205.46484375 137.58203125 C-206.89899121 141.96934585 -208.84652024 145.92094655 -211 150 C-214.35478581 149.88909054 -217.70855176 149.75871222 -221.0625 149.625 C-222.00544922 149.5940625 -222.94839844 149.563125 -223.91992188 149.53125 C-227.97770915 149.36158642 -231.51739073 149.14417746 -235.42578125 147.9765625 C-240.65340569 146.54824981 -245.73117205 146.70263995 -251.125 146.75 C-252.80613892 146.76232666 -252.80613892 146.76232666 -254.52124023 146.77490234 C-281.20014683 147.13571647 -302.93074004 157.53897666 -322.25 175.75 C-329.42586788 183.17049974 -334.48983966 192.02969364 -339.25 201.125 C-341.86375775 205.95584766 -343.87584868 208.928312 -349.25683594 210.77416992 C-356.24552678 212.79023693 -362.82004604 213.48030855 -370.0625 213.8125 C-383.75947148 214.66906937 -395.59434697 218.13325052 -407.98046875 224.04296875 C-409.73222253 224.87310352 -411.52200201 225.62206678 -413.31640625 226.35546875 C-417.01365501 227.93439471 -420.38745071 229.93130499 -423.75 232.125 C-424.65733887 232.71486694 -424.65733887 232.71486694 -425.58300781 233.31665039 C-441.92812158 244.12516888 -454.99395777 257.91479188 -465.5 274.375 C-466.16902344 275.41068115 -466.16902344 275.41068115 -466.8515625 276.46728516 C-467.26148438 277.12519043 -467.67140625 277.7830957 -468.09375 278.4609375 C-468.46177734 279.04665527 -468.82980469 279.63237305 -469.20898438 280.23583984 C-470.27275711 282.28608534 -470.27275711 282.28608534 -470 286 C-470.66 286 -471.32 286 -472 286 C-472.48919922 287.28583984 -472.48919922 287.28583984 -472.98828125 288.59765625 C-473.42527344 289.74105469 -473.86226562 290.88445312 -474.3125 292.0625 C-474.95638672 293.75052734 -474.95638672 293.75052734 -475.61328125 295.47265625 C-476.52320019 297.78718245 -477.50631918 300.07450779 -478.56640625 302.32421875 C-480.30305285 306.77703742 -480.98371041 311.03506404 -481.625 315.75 C-481.86500726 317.4326041 -482.10710651 319.11491147 -482.3515625 320.796875 C-482.45291504 321.53260742 -482.55426758 322.26833984 -482.65869141 323.02636719 C-483 325 -483 325 -484 328 C-484.1090863 330.68718974 -484.16404629 333.34759416 -484.16796875 336.03515625 C-484.17129715 336.82844833 -484.17462555 337.62174042 -484.17805481 338.43907166 C-484.18311845 340.12107769 -484.18546331 341.80309377 -484.18530273 343.48510742 C-484.18747115 346.02865792 -484.20558213 348.57176165 -484.22460938 351.11523438 C-484.26065291 361.24870621 -484.04925329 370.54081317 -480 380 C-479.23631886 383.04272958 -478.55491492 386.09687123 -477.87890625 389.16015625 C-476.96594552 392.11003381 -475.8785184 393.58991045 -474 396 C-472.75677758 398.44706676 -471.55577195 400.89853984 -470.375 403.375 C-455.86222187 432.8736896 -432.29448944 457.01984255 -400.81738281 468.18554688 C-388.77739026 472.18460992 -376.54829446 475.21092165 -363.80273438 475.06591797 C-363.0127002 475.06124512 -362.22266602 475.05657227 -361.40869141 475.05175781 C-359.69930114 475.04129833 -357.98992314 475.02865019 -356.28056335 475.01403427 C-353.5410846 474.99175927 -350.80167792 474.97783663 -348.06213379 474.96633911 C-340.27374506 474.93304268 -332.4854692 474.89244023 -324.69726562 474.82861328 C-262.7717236 474.33816424 -262.7717236 474.33816424 -235 483 C-234.35337402 483.19319824 -233.70674805 483.38639648 -233.04052734 483.58544922 C-216.80176075 488.50153997 -201.17582003 497.28955837 -192 512 C-187.46862268 521.4805412 -187.77986183 533.21379675 -190.35546875 543.23828125 C-191.18173271 545.49673606 -192.48991088 547.1467088 -194 549 C-194 550.32 -194 551.64 -194 553 C-193.3201001 553.01981934 -192.6402002 553.03963867 -191.93969727 553.06005859 C-188.81362259 553.15621282 -185.68813527 553.26552066 -182.5625 553.375 C-181.49322266 553.4059375 -180.42394531 553.436875 -179.32226562 553.46875 C-161.02165697 554.14033197 -161.02165697 554.14033197 -156 559 C-155.23803553 562.53610694 -155.24240242 565.73733737 -157.125 568.875 C-163.15562851 572.49337711 -169.33449835 572.32334278 -176.14453125 572.37890625 C-177.76931648 572.40439796 -177.76931648 572.40439796 -179.42692566 572.43040466 C-182.88872444 572.48337909 -186.35051615 572.52366635 -189.8125 572.5625 C-219.25970103 572.93022567 -219.25970103 572.93022567 -248.5 576.1875 C-249.18221619 576.29604309 -249.86443237 576.40458618 -250.56732178 576.51641846 C-275.04123494 580.4358444 -299.05012311 586.55526922 -322 596 C-322.77609619 596.31388672 -323.55219238 596.62777344 -324.35180664 596.95117188 C-359.94778218 611.42283218 -391.61519891 631.3782649 -421 656 C-421.94431885 656.78769775 -421.94431885 656.78769775 -422.90771484 657.59130859 C-429.54393911 663.1412615 -435.95144333 668.77268979 -441.984375 674.984375 C-443.95516371 676.95516371 -445.99929553 678.76133057 -448.125 680.5625 C-451.52243267 683.47554623 -454.40383627 686.63209677 -457.29296875 690.04296875 C-458.91260807 691.89980925 -460.60123291 693.60397492 -462.375 695.3125 C-466.49444541 699.3772625 -470.05750918 703.84570383 -473.67089844 708.35888672 C-475.0980985 710.1211275 -476.55061212 711.86015421 -478.0078125 713.59765625 C-485.72783721 722.85367 -492.66322695 732.47572374 -499.33642578 742.50830078 C-501.00990896 745.01484162 -502.70371058 747.50654209 -504.40234375 749.99609375 C-512.96924593 762.61394615 -520.88083591 775.55938407 -528.61816406 788.69775391 C-529.69698678 790.49515641 -530.83717662 792.25576493 -532 794 C-532 794.99 -532 795.98 -532 797 C-531.01 797 -530.02 797 -529 797 C-529 797.66 -529 798.32 -529 799 C-527.06413658 800.48700127 -527.06413658 800.48700127 -524.5234375 801.984375 C-523.55365967 802.5827417 -522.58388184 803.1811084 -521.5847168 803.79760742 C-520.52551025 804.44189697 -519.46630371 805.08618652 -518.375 805.75 C-516.15963337 807.11503718 -513.94480087 808.48094156 -511.73046875 809.84765625 C-511.16582413 810.19496292 -510.6011795 810.54226959 -510.01942444 810.90010071 C-504.53917774 814.27285818 -499.10944709 817.72208609 -493.6875 821.1875 C-491.87252958 822.34526178 -490.05742693 823.50281629 -488.2421875 824.66015625 C-487.3665918 825.21848145 -486.49099609 825.77680664 -485.58886719 826.35205078 C-481.50298706 828.95292695 -477.40847079 831.54005315 -473.3125 834.125 C-472.15041016 834.85843628 -472.15041016 834.85843628 -470.96484375 835.60668945 C-468.64342132 837.07143118 -466.32175923 838.53579219 -464 840 C-454.92290999 845.72442907 -445.84938305 851.45410021 -436.79760742 857.21850586 C-434.94272846 858.39967802 -433.08742694 859.58018689 -431.23168945 860.76000977 C-426.65554467 863.6695214 -422.08463314 866.58663164 -417.5234375 869.51953125 C-415.80734436 870.61726988 -414.09120081 871.71492971 -412.375 872.8125 C-411.58738281 873.32232422 -410.79976563 873.83214844 -409.98828125 874.35742188 C-409.25738281 874.82341797 -408.52648437 875.28941406 -407.7734375 875.76953125 C-406.82090088 876.38211792 -406.82090088 876.38211792 -405.84912109 877.00708008 C-403.90796045 878.04942235 -402.13667623 878.50343532 -400 879 C-399.99853344 878.43715364 -399.99706688 877.87430729 -399.99555588 877.29440498 C-399.95841181 863.56289235 -399.89904709 849.83162808 -399.81609726 836.10031319 C-399.77664653 829.45974051 -399.74444615 822.81938649 -399.72900391 816.17871094 C-399.71382178 809.76595725 -399.67934752 803.35356688 -399.63169098 796.94097519 C-399.61689342 794.49869831 -399.60895992 792.05636956 -399.60811615 789.614048 C-399.60573997 786.18387708 -399.57860575 782.7547049 -399.54589844 779.32470703 C-399.55344398 777.8217382 -399.55344398 777.8217382 -399.56114197 776.28840637 C-399.43179515 767.47751492 -396.62635151 760.36151706 -392.1875 752.80859375 C-391.67550049 751.93517334 -391.16350098 751.06175293 -390.63598633 750.16186523 C-390.09611084 749.26282471 -389.55623535 748.36378418 -389 747.4375 C-388.43112061 746.48367432 -387.86224121 745.52984863 -387.27612305 744.54711914 C-381.94241773 735.71370016 -376.15496882 727.27729726 -370 719 C-369.57122559 718.41959961 -369.14245117 717.83919922 -368.70068359 717.24121094 C-365.87495721 713.43315048 -362.97071557 709.69589604 -360 706 C-359.58411621 705.47970215 -359.16823242 704.9594043 -358.73974609 704.42333984 C-352.11669491 696.21657002 -344.86688857 688.66605509 -337.4375 681.1875 C-336.57535889 680.31609375 -335.71321777 679.4446875 -334.82495117 678.546875 C-328.85943087 672.61015727 -322.60596318 667.21059091 -316 662 C-314.9015979 661.12855347 -314.9015979 661.12855347 -313.78100586 660.23950195 C-285.24598441 637.78387312 -253.84277697 620.5459541 -219 610 C-217.27910156 609.47599609 -217.27910156 609.47599609 -215.5234375 608.94140625 C-211.60503381 607.81338094 -207.80207276 606.90475225 -203.75 606.4375 C-200.05726391 606.11280484 -200.05726391 606.11280484 -196.83032227 605.07324219 C-182.64284753 601.09796403 -168.05104485 600.55702948 -153.40649414 600.71875 C-150.53974392 600.75025005 -147.67354806 600.75978063 -144.80664062 600.765625 C-131.50236179 600.82002208 -118.53581627 601.17132758 -105.5 604.0625 C-98.32516438 605.72029033 -98.32516438 605.72029033 -91 606 C-91 606.66 -91 607.32 -91 608 C-89.90945313 608.23783203 -89.90945313 608.23783203 -88.796875 608.48046875 C-80.3197352 610.44759991 -71.94371509 612.95239924 -64.484375 617.55078125 C-61.90592248 619.05487855 -59.55511535 619.8845677 -56.6875 620.6875 C-55.36298828 621.06455078 -55.36298828 621.06455078 -54.01171875 621.44921875 C-53.34785156 621.63097656 -52.68398438 621.81273437 -52 622 C-52 622.66 -52 623.32 -52 624 C-51.18660156 624.41507813 -50.37320312 624.83015625 -49.53515625 625.2578125 C-32.5246531 634.40406729 -10.39594915 649.99796753 -2.97265625 668.5703125 C-2.01862237 671.19495063 -2.01862237 671.19495063 0 674 C3.15129009 686.70844006 2.44502338 700.38293746 2.625 713.375 C2.66325986 715.67188851 2.70231598 717.9687639 2.7421875 720.265625 C2.83730483 725.84363198 2.92259485 731.42172056 3 737 C28.65214895 721.92513465 53.41674647 699.69423109 70.82177734 675.62695312 C72.01400127 673.9806663 73.23313422 672.35721121 74.45703125 670.734375 C88.37231208 652.04093907 100.69134795 631.16602137 108 609 C108.47568936 607.73127068 108.95646724 606.4644415 109.44140625 605.19921875 C111.16577339 600.64717253 112.62021245 596.02278085 114.0625 591.375 C114.57378036 589.73684228 115.08548935 588.09881827 115.59765625 586.4609375 C115.83758301 585.68967529 116.07750977 584.91841309 116.32470703 584.1237793 C116.89290147 582.33682217 117.50232062 580.56304799 118.12109375 578.79296875 C119.05189489 575.83508957 119.56546719 573.00638797 120 569.9375 C120.24556641 568.25527344 120.24556641 568.25527344 120.49609375 566.5390625 C120.74552734 564.78722656 120.74552734 564.78722656 121 563 C121.35001362 560.60355641 121.70401791 558.20769143 122.0625 555.8125 C122.21847656 554.74644531 122.37445312 553.68039062 122.53515625 552.58203125 C123 550 123 550 124 548 C124.08991092 546.45772144 124.11756961 544.91159105 124.11352539 543.36669922 C124.11344986 542.40585419 124.11337433 541.44500916 124.11329651 540.45504761 C124.10813522 539.41542877 124.10297394 538.37580994 124.09765625 537.3046875 C124.0962413 536.24210724 124.09482635 535.17952698 124.09336853 534.08474731 C124.08775834 530.68146991 124.07520409 527.27825762 124.0625 523.875 C124.05748631 521.57161553 124.05292318 519.26823003 124.04882812 516.96484375 C124.0377856 511.30987351 124.02103752 505.65494141 124 500 C122.70964844 499.96261719 121.41929687 499.92523437 120.08984375 499.88671875 C118.37236851 499.82102298 116.65492185 499.7545769 114.9375 499.6875 C114.08994141 499.66494141 113.24238281 499.64238281 112.36914062 499.61914062 C106.89723908 499.38674326 102.83058452 498.64457228 98 496 C95.89080687 492.8362103 95.65638407 491.73502395 95.5625 488.0625 C95.52253906 487.20785156 95.48257813 486.35320312 95.44140625 485.47265625 C96 483 96 483 97.9211731 480.87858582 C102.25195222 478.23610526 105.83666038 478.43439993 110.81982422 478.4699707 C111.8041745 478.46123932 112.78852478 478.45250793 113.80270386 478.44351196 C117.05355057 478.41913504 120.30376098 478.42254767 123.5546875 478.42578125 C125.81764813 478.4133347 128.08059909 478.39900009 130.34353638 478.38285828 C136.30192042 478.34480277 142.26013828 478.32964183 148.21862793 478.32006836 C157.74850116 478.30034238 167.27824746 478.24337168 176.80798721 478.19130516 C180.13322318 478.17599518 183.45839593 478.1687735 186.78366089 478.16316223 C188.8295698 478.15614264 190.87547842 478.14904145 192.92138672 478.1418457 C193.84213989 478.14237442 194.76289307 478.14290314 195.71154785 478.14344788 C200.58054571 478.12077196 205.19882732 477.82158572 210 477 C210 476.34 210 475.68 210 475 C211.30839844 474.88785156 212.61679687 474.77570313 213.96484375 474.66015625 C218.72800322 474.12512662 223.0384011 472.98851848 227.5625 471.4375 C228.33480957 471.17428955 229.10711914 470.9110791 229.90283203 470.63989258 C242.91478648 466.0504872 254.38763865 459.8894814 265 451 C265.99644531 450.16726563 266.99289062 449.33453125 268.01953125 448.4765625 C284.36065357 434.37448819 297.43096006 415.3431602 303.1875 394.5 C303.57711914 393.15228516 303.57711914 393.15228516 303.97460938 391.77734375 C306.72772163 382.00272814 307.18191128 372.86558527 307.1875 362.75 C307.19974609 361.59886719 307.21199219 360.44773437 307.22460938 359.26171875 C307.24157661 349.2284273 306.10106643 339.71661933 303.0625 330.125 C302.74410156 329.09632813 302.42570313 328.06765625 302.09765625 327.0078125 C300.94654731 323.85352821 299.540306 320.98269523 298 318 C297.4206981 316.78043469 296.84537935 315.55897174 296.2734375 314.3359375 C290.01058584 301.16326588 282.37148769 289.40334586 270.6640625 280.4140625 C270.05328857 279.94427979 269.44251465 279.47449707 268.81323242 278.99047852 C267.6010017 278.06761798 266.38026506 277.15577861 265.1496582 276.25756836 C263.35767195 274.90775728 261.67369115 273.49378141 260 272 C259.41766602 271.49452637 258.83533203 270.98905273 258.23535156 270.46826172 C253.52841094 265.4998244 253.4750987 260.42028331 253.59577942 253.90733337 C253.66902067 251.60363193 253.76799203 249.30236608 253.875 247 C254.91751618 226.88523377 254.91751618 226.88523377 247 209 C246.608125 207.989375 246.21625 206.97875 245.8125 205.9375 C239.35708233 190.3979121 224.20646966 178.60802782 209.00268555 172.15185547 C203.64469221 170.1014484 198.15822331 168.49577683 192.66015625 166.8671875 C190 166 190 166 189 165 C186.54469031 164.59323365 184.11460921 164.25401269 181.64453125 163.96484375 C180.88751419 163.8761351 180.13049713 163.78742645 179.35054016 163.69602966 C169.65031105 162.64351032 159.92370622 162.61666427 150.17602539 162.54370117 C147.74590769 162.52212436 145.31656766 162.48280198 142.88671875 162.44140625 C142.15136398 162.44129044 141.41600922 162.44117462 140.65837097 162.4410553 C136.51889342 162.36051859 133.94486179 162.02510452 131 159 C130.3125 157.08203125 130.3125 157.08203125 130 154.8125 C128.01436874 142.98504423 125.04210129 131.91077657 120 121 C119.34 121 118.68 121 118 121 C117.814375 119.63875 117.814375 119.63875 117.625 118.25 C117.07890323 115.41029677 116.42736197 113.47409409 115 111 C114.34 111 113.68 111 113 111 C112.89558594 110.278125 112.79117188 109.55625 112.68359375 108.8125 C106.63893245 83.94303636 74.56813038 59.63058526 54 47 C47.18429424 42.86911085 40.35628154 39.08263226 33 36 C32.01 35.484375 31.02 34.96875 30 34.4375 C26.71758653 32.86467688 23.50629112 31.96725272 20 31 C18.68285592 30.51236517 17.37040465 30.01190006 16.0625 29.5 C12.78291897 28.24104375 9.5313518 27.32769362 6.11328125 26.53125 C3.80842437 25.95184051 1.57377369 25.23062155 -0.6875 24.5 C-12.09709387 21.09869222 -23.47569365 20.67837525 -35.28222656 20.73925781 C-37.73267708 20.74992459 -40.18238486 20.73933026 -42.6328125 20.7265625 C-57.11525732 20.7118345 -71.28307889 21.805006 -85.3125 25.625 Z " fill="#316DC3" transform="translate(646,43)"/>
<path d="M0 0 C0.9109974 -0.01391501 1.8219948 -0.02783003 2.76059818 -0.04216671 C4.38282663 -0.06757872 6.00495106 -0.10423834 7.62654018 -0.15638828 C13.98658251 -0.23405986 20.01315455 1.12063217 25.32662964 4.72994995 C26.13100464 5.57106323 26.13100464 5.57106323 26.95162964 6.4291687 C27.50850464 6.98217651 28.06537964 7.53518433 28.63912964 8.10494995 C31.84500867 13.01872288 31.07577162 19.61260411 31.02999878 25.27706909 C31.02388334 27.14955081 31.01795652 29.02203316 31.01219177 30.89451599 C31.00518344 32.37628421 31.00518344 32.37628421 30.99803352 33.88798714 C30.9787098 39.17321363 30.99409366 44.45838444 31.00436401 49.74362183 C31.01654712 56.44479465 31.01862027 63.14533303 30.97579956 69.84640503 C30.94200088 75.28082103 30.94815333 80.71398914 30.97936821 86.14840508 C30.98423091 88.19925934 30.97531837 90.25020277 30.95115852 92.30092049 C30.79403882 106.48585397 33.08783839 117.72012687 38.87423515 130.69351006 C40.38494702 134.09123908 41.80084477 137.52670059 43.22561741 140.96113682 C44.20136959 143.30354441 45.19266629 145.63880909 46.18991089 147.97213745 C50.62066573 158.3591431 53.95706089 166.60377287 52.95162964 178.1166687 C50.68125118 183.18135911 48.07861076 185.12865561 42.95162964 187.1166687 C39.40315741 187.97014578 36.10275804 188.24829747 32.45783997 188.26815796 C31.36605438 188.27650162 30.2742688 188.28484528 29.1493988 188.29344177 C27.36722206 188.2997184 27.36722206 188.2997184 25.54904175 188.30612183 C23.61605901 188.31885306 21.68307627 188.33158446 19.75009358 188.3443222 C17.67643332 188.35704791 15.60277335 188.36737966 13.5290966 188.37702942 C9.1945254 188.39732803 4.86001982 188.42497433 0.52549744 188.45370483 C-8.68659416 188.51372664 -17.8987259 188.56552275 -27.11087036 188.6166687 C-37.03372207 188.67186608 -46.95655361 188.72864514 -56.87934297 188.79421759 C-61.17703031 188.82234809 -65.47471097 188.84602246 -69.77244294 188.86614227 C-71.81070208 188.8763888 -73.84893522 188.88877598 -75.88717651 188.90208435 C-78.35724381 188.91819604 -80.82733542 188.9310912 -83.29743958 188.93989563 C-89.70466478 188.98799147 -96.02383223 189.28075774 -102.40305614 189.89039326 C-106.57046966 190.24686635 -110.72738066 190.27889276 -114.90774536 190.28463745 C-115.78183044 190.28796585 -116.65591553 190.29129425 -117.55648804 190.29472351 C-119.38141359 190.29973144 -121.2063481 190.30213377 -123.03128052 190.30197144 C-125.80666057 190.30417528 -128.58165308 190.32244334 -131.35696411 190.34127808 C-133.14472319 190.34420998 -134.93248413 190.34619613 -136.72024536 190.34713745 C-137.53813538 190.35432297 -138.35602539 190.36150848 -139.19869995 190.36891174 C-144.47639298 190.34813476 -148.97324791 189.5793101 -154.04837036 188.1166687 C-154.83727661 187.89366089 -155.62618286 187.67065308 -156.43899536 187.44088745 C-160.96415395 185.89130583 -163.42634559 184.31190834 -166.04837036 180.1166687 C-167.02896243 177.17489249 -167.21355501 175.18726148 -167.23587036 172.1166687 C-167.25005005 171.2504187 -167.26422974 170.3841687 -167.27883911 169.4916687 C-166.57728432 159.21805274 -163.46170408 150.25724711 -159.67337036 140.7416687 C-158.70312198 138.27713404 -157.73694195 135.81099366 -156.77493286 133.3432312 C-156.13418823 131.72795532 -156.13418823 131.72795532 -155.48049927 130.08004761 C-155.26161545 129.4719928 -155.04273163 128.86393799 -154.81721497 128.23745728 C-154.25096448 126.67550634 -153.64034461 125.12946744 -153.00572205 123.59402466 C-149.2841618 113.52475535 -149.49140327 103.62099554 -149.53195 93.00502014 C-149.54469272 89.6502336 -149.53319042 86.29625608 -149.51591492 82.9414978 C-149.48935922 77.03833129 -149.48361444 71.135367 -149.48501587 65.23214722 C-149.48725522 55.75712263 -149.47315401 46.28234577 -149.42943001 36.80741882 C-149.4195975 33.50521728 -149.42830067 30.20340799 -149.43812561 26.9012146 C-149.43198347 24.88123313 -149.42507243 22.8612538 -149.41726685 20.84127808 C-149.42498611 19.92590271 -149.43270538 19.01052734 -149.44065857 18.06741333 C-149.39108168 11.85825898 -148.23350283 8.57494273 -144.04837036 3.8666687 C-140.78741054 1.01332886 -137.93560096 0.98666264 -133.772995 0.95845032 C-132.13154007 0.94376709 -132.13154007 0.94376709 -130.45692444 0.92878723 C-129.25548294 0.92303177 -128.05404144 0.91727631 -126.81619263 0.91134644 C-124.91788696 0.89649704 -124.91788696 0.89649704 -122.98123169 0.88134766 C-119.50292496 0.85427025 -116.02460471 0.83326152 -112.54625058 0.81334567 C-108.88937557 0.79141385 -105.23254121 0.76404046 -101.57569885 0.73728943 C-95.41613579 0.69298539 -89.25655787 0.65223188 -83.09695435 0.61398315 C-74.47898834 0.56046442 -65.86107445 0.50070074 -57.24315941 0.43958747 C-50.4920402 0.39193347 -43.74090966 0.34590988 -36.98977661 0.30026245 C-36.27837816 0.2954457 -35.5669797 0.29062894 -34.83402371 0.28566623 C-32.72778487 0.2714709 -30.62154501 0.2574396 -28.51530457 0.2434845 C-27.83804174 0.23895285 -27.16077891 0.23442121 -26.46299297 0.22975224 C-21.95640378 0.20025983 -17.44981945 0.17944875 -12.94317627 0.16033936 C-8.62749549 0.14015378 -4.31477458 0.0895842 0 0 Z " fill="#326DC3" transform="translate(677.0483703613281,429.8833312988281)"/>
<path d="M0 0 C1.60247337 -0.0129007 1.60247337 -0.0129007 3.23731995 -0.02606201 C4.98763771 -0.03245193 4.98763771 -0.03245193 6.77331543 -0.03897095 C8.00617783 -0.04714844 9.23904022 -0.05532593 10.50926208 -0.06375122 C14.59141721 -0.08857813 18.67353547 -0.10526451 22.7557373 -0.11953735 C24.16227728 -0.12489889 25.5688172 -0.1302764 26.97535706 -0.13566971 C32.82422752 -0.15728131 38.6730953 -0.17601996 44.52199554 -0.1872921 C52.90129915 -0.20354906 61.28014047 -0.236788 69.65926981 -0.29369295 C75.55405644 -0.33236232 81.44871921 -0.35192078 87.34362936 -0.35721266 C90.86394529 -0.3608684 94.38376729 -0.37291314 97.90394592 -0.4053154 C101.82798951 -0.44092141 105.75144925 -0.43703281 109.67565918 -0.42959595 C110.84253769 -0.44600128 112.0094162 -0.46240662 113.21165466 -0.47930908 C121.05917674 -0.41820404 121.05917674 -0.41820404 124.41671753 2.46896362 C126.05675072 5.83605858 126.80459624 9.10106979 127.3572998 12.77108765 C127.48007294 13.50529938 127.60284607 14.23951111 127.7293396 14.99597168 C128.11714166 17.33818703 128.48336607 19.68320926 128.8494873 22.02890015 C129.10203487 23.56558239 129.35593016 25.10204378 129.61120605 26.63827515 C130.79445118 33.84046151 131.85774546 41.04639747 132.7791748 48.28671265 C133.25712152 52.03166206 133.75693843 55.61968882 134.81433105 59.2437439 C136.3729761 64.94239588 136.21455161 70.84910879 136.2869873 76.71640015 C136.33661621 77.89009155 136.38624512 79.06378296 136.43737793 80.27304077 C136.51730168 87.23401897 135.59944932 91.90726906 132.23376465 98.03475952 C127.9854651 106.46981186 127.72913251 114.07359635 127.82214355 123.3687439 C127.81273032 124.96158368 127.80025538 126.55440798 127.78489685 128.14720154 C127.75302404 132.2852722 127.76198233 136.42222103 127.78027344 140.56033325 C127.79153153 144.8045319 127.76303206 149.04845856 127.73815918 153.29257202 C127.69530886 161.57991391 127.69571311 169.86649839 127.7244873 178.15390015 C132.34297959 178.82912821 132.34297959 178.82912821 136.9744873 179.40390015 C139.79900179 180.61440636 140.50326873 182.40615835 141.7244873 185.15390015 C142.2244873 188.15390015 142.2244873 188.15390015 141.7244873 191.15390015 C139.09437326 194.36848398 136.60448679 196.68038099 132.7244873 198.15390015 C130.09212871 198.36289384 127.56226201 198.46502465 124.92907715 198.4727478 C123.74956797 198.48780349 123.74956797 198.48780349 122.54623032 198.50316334 C119.92596918 198.53415745 117.30581215 198.55111079 114.6854248 198.56796265 C112.83001902 198.58686913 110.97462132 198.60658466 109.11923218 198.62705994 C104.14235207 198.67926809 99.16544807 198.71889888 94.18843079 198.7553978 C90.07737882 198.7866769 85.96639281 198.8241805 81.85539246 198.86155224 C69.72221204 198.97131411 57.58893889 199.05741215 45.45552063 199.13579559 C42.07595788 199.15819937 38.69641502 199.18296384 35.31686974 199.20783997 C27.74273323 199.26326132 20.16873492 199.30558371 12.59442139 199.32913208 C10.2076498 199.33722092 7.82088614 199.34826149 5.43414307 199.36245728 C-26.52101467 199.53529886 -26.52101467 199.53529886 -32.09631348 194.71517944 C-34.96470619 191.34387001 -35.02178323 189.56869801 -34.7520752 185.31015015 C-33.93772473 181.62554805 -32.36364347 180.21265399 -29.2755127 178.15390015 C-27.23254395 177.73983765 -27.23254395 177.73983765 -25.0880127 177.52890015 C-23.8298877 177.40515015 -22.5717627 177.28140015 -21.2755127 177.15390015 C-21.20600436 167.96577092 -21.1526973 158.7777322 -21.12007618 149.58939743 C-21.10441971 145.32288069 -21.08318193 141.05654383 -21.04919434 136.79013062 C-21.01659998 132.67284629 -20.99865954 128.55573499 -20.99088097 124.4383316 C-20.98533757 122.86743699 -20.97451265 121.29655186 -20.95832253 119.7257309 C-20.93654668 117.52547232 -20.93354575 115.32592882 -20.93493652 113.12557983 C-20.92827469 111.87315491 -20.92161285 110.62072998 -20.91474915 109.33035278 C-21.30359666 105.90662634 -22.05500566 104.6905881 -24.2755127 102.15390015 C-24.2755127 101.49390015 -24.2755127 100.83390015 -24.2755127 100.15390015 C-24.9355127 100.15390015 -25.5955127 100.15390015 -26.2755127 100.15390015 C-29.5627246 91.87717018 -30.93850723 85.02396344 -30.2755127 76.15390015 C-30.22620605 75.45345581 -30.17689941 74.75301147 -30.12609863 74.03134155 C-29.40287022 64.31735085 -27.98138095 55.15686893 -25.41223145 45.73983765 C-23.57567685 38.71875865 -22.42933049 31.52435302 -21.20202637 24.37631226 C-18.32948339 8.51173998 -18.32948339 8.51173998 -12.2755127 3.15390015 C-8.08262202 0.35863969 -4.97858558 0.02990556 0 0 Z " fill="#316DC3" transform="translate(639.2755126953125,193.84609985351563)"/>
<path d="M0 0 C1.51822424 -0.00067555 3.03644837 -0.00164767 4.55467224 -0.00289917 C7.7292484 -0.00436745 10.90379629 -0.00225179 14.07836914 0.00244141 C18.09983641 0.00810388 22.1212364 0.00487632 26.14270115 -0.00113106 C29.27872703 -0.00478968 32.41473767 -0.00357353 35.55076408 -0.00100327 C37.03077134 -0.00034676 38.51078009 -0.00111647 39.9907856 -0.00348282 C74.85950148 -0.04696958 74.85950148 -0.04696958 84.86328125 8.14453125 C90.52582559 15.61146148 89.79926567 24.33146405 89.75927734 33.25024414 C89.7633475 34.77699661 89.76869187 36.30374612 89.77520752 37.83049011 C89.78883299 41.95852799 89.78360261 46.08633984 89.77407026 50.21438146 C89.76645024 54.5432718 89.77352564 58.8721434 89.77822876 63.20103455 C89.78367892 70.46812397 89.77651354 77.73512177 89.76220703 85.00219727 C89.74587578 93.39448161 89.75117542 101.78654733 89.76768625 110.17882639 C89.78131489 117.39604149 89.78321423 124.6131909 89.77537024 131.83041471 C89.77070208 136.13586633 89.77004535 140.44121528 89.77997971 144.74666023 C89.78866741 148.79413745 89.78259473 152.84133363 89.76529694 156.88878059 C89.76134196 158.37100763 89.76244916 159.85325846 89.76908493 161.33547592 C89.81329721 172.21709311 89.00678699 179.10554524 81.37109375 187.1328125 C80.71109375 187.1328125 80.05109375 187.1328125 79.37109375 187.1328125 C79.37109375 187.7928125 79.37109375 188.4528125 79.37109375 189.1328125 C74.91609375 190.1228125 74.91609375 190.1228125 70.37109375 191.1328125 C70.37109375 191.7928125 70.37109375 192.4528125 70.37109375 193.1328125 C65.40404789 194.12656762 60.67052966 194.28093218 55.63110352 194.27807617 C54.34455368 194.28311409 54.34455368 194.28311409 53.03201294 194.28825378 C50.20882706 194.29771946 47.38570074 194.29970456 44.5625 194.30078125 C42.59244259 194.3039964 40.62238541 194.30736067 38.65232849 194.31086731 C34.52757209 194.31684727 30.4028366 194.31870833 26.27807617 194.31811523 C21.0012012 194.31801357 15.72446064 194.33167552 10.44761753 194.34888744 C6.38033943 194.36002184 2.31309371 194.36203401 -1.75419807 194.36150551 C-3.69938687 194.36268307 -5.64457656 194.36709228 -7.58975029 194.37483788 C-10.31310249 194.38466868 -13.0361643 194.38174773 -15.75952148 194.37573242 C-16.95595528 194.38416168 -16.95595528 194.38416168 -18.17655945 194.39276123 C-25.58029926 194.35134428 -31.41478599 193.09815274 -36.98828125 187.9765625 C-42.30756015 181.99870621 -44.68233178 175.48734143 -44.8250885 167.55307007 C-44.84329147 166.66280624 -44.86149445 165.77254242 -44.88024902 164.8553009 C-44.89535522 163.89033188 -44.91046143 162.92536285 -44.92602539 161.93115234 C-44.94567856 160.90399612 -44.96533173 159.8768399 -44.98558044 158.81855774 C-45.04957577 155.41035434 -45.10695702 152.0020753 -45.1640625 148.59375 C-45.2071671 146.19609025 -45.25058374 143.7984361 -45.29429626 141.40078735 C-45.38534905 136.35187288 -45.47325083 131.30291627 -45.55883789 126.25390625 C-45.66686317 119.89002585 -45.78157732 113.52628861 -45.89834023 107.16256332 C-46.1402803 93.94219106 -46.35267732 80.72167354 -46.53643799 67.50036621 C-46.59292249 63.47516764 -46.65755369 59.45030012 -46.73309326 55.42541504 C-46.81047994 51.29902744 -46.86935205 47.17288148 -46.91073418 43.04597855 C-46.92812449 41.62529665 -46.95233294 40.20467599 -46.98451424 38.78425217 C-47.23113288 27.60978166 -46.04190216 17.07568281 -39.00390625 8.0078125 C-29.22988695 -1.89314212 -12.87185496 -0.02035277 0 0 Z " fill="#FBFCFD" transform="translate(392.62890625,225.8671875)"/>
<path d="M0 0 C45.87 0 91.74 0 139 0 C139 28.38 139 56.76 139 86 C118.57727298 86.58350649 98.24648752 87.14905016 77.83203125 87.09765625 C75.55034924 87.09578008 73.26866682 87.0943619 70.98698425 87.09336853 C65.12007437 87.08963733 59.25319118 87.07989355 53.3862915 87.06866455 C46.27280478 87.05639426 39.15930889 87.05200323 32.04581451 87.04621124 C21.36385805 87.03667173 10.68195958 87.01745101 0 87 C0 58.29 0 29.58 0 0 Z " fill="#FCFCFD" transform="translate(549,452)"/>
<path d="M0 0 C1.51822424 -0.00067555 3.03644837 -0.00164767 4.55467224 -0.00289917 C7.7292484 -0.00436745 10.90379629 -0.00225179 14.07836914 0.00244141 C18.09983641 0.00810388 22.1212364 0.00487632 26.14270115 -0.00113106 C29.27872703 -0.00478968 32.41473767 -0.00357353 35.55076408 -0.00100327 C37.03077134 -0.00034676 38.51078009 -0.00111647 39.9907856 -0.00348282 C74.85950148 -0.04696958 74.85950148 -0.04696958 84.86328125 8.14453125 C90.52582559 15.61146148 89.79926567 24.33146405 89.75927734 33.25024414 C89.7633475 34.77699661 89.76869187 36.30374612 89.77520752 37.83049011 C89.78883299 41.95852799 89.78360261 46.08633984 89.77407026 50.21438146 C89.76645024 54.5432718 89.77352564 58.8721434 89.77822876 63.20103455 C89.78367892 70.46812397 89.77651354 77.73512177 89.76220703 85.00219727 C89.74587578 93.39448161 89.75117542 101.78654733 89.76768625 110.17882639 C89.78131489 117.39604149 89.78321423 124.6131909 89.77537024 131.83041471 C89.77070208 136.13586633 89.77004535 140.44121528 89.77997971 144.74666023 C89.78866741 148.79413745 89.78259473 152.84133363 89.76529694 156.88878059 C89.76134196 158.37100763 89.76244916 159.85325846 89.76908493 161.33547592 C89.81329721 172.21709311 89.00678699 179.10554524 81.37109375 187.1328125 C80.71109375 187.1328125 80.05109375 187.1328125 79.37109375 187.1328125 C79.37109375 187.7928125 79.37109375 188.4528125 79.37109375 189.1328125 C74.91609375 190.1228125 74.91609375 190.1228125 70.37109375 191.1328125 C70.37109375 191.7928125 70.37109375 192.4528125 70.37109375 193.1328125 C65.40404789 194.12656762 60.67052966 194.28093218 55.63110352 194.27807617 C54.34455368 194.28311409 54.34455368 194.28311409 53.03201294 194.28825378 C50.20882706 194.29771946 47.38570074 194.29970456 44.5625 194.30078125 C42.59244259 194.3039964 40.62238541 194.30736067 38.65232849 194.31086731 C34.52757209 194.31684727 30.4028366 194.31870833 26.27807617 194.31811523 C21.0012012 194.31801357 15.72446064 194.33167552 10.44761753 194.34888744 C6.38033943 194.36002184 2.31309371 194.36203401 -1.75419807 194.36150551 C-3.69938687 194.36268307 -5.64457656 194.36709228 -7.58975029 194.37483788 C-10.31310249 194.38466868 -13.0361643 194.38174773 -15.75952148 194.37573242 C-16.95595528 194.38416168 -16.95595528 194.38416168 -18.17655945 194.39276123 C-25.58029926 194.35134428 -31.41478599 193.09815274 -36.98828125 187.9765625 C-42.30756015 181.99870621 -44.68233178 175.48734143 -44.8250885 167.55307007 C-44.84329147 166.66280624 -44.86149445 165.77254242 -44.88024902 164.8553009 C-44.89535522 163.89033188 -44.91046143 162.92536285 -44.92602539 161.93115234 C-44.94567856 160.90399612 -44.96533173 159.8768399 -44.98558044 158.81855774 C-45.04957577 155.41035434 -45.10695702 152.0020753 -45.1640625 148.59375 C-45.2071671 146.19609025 -45.25058374 143.7984361 -45.29429626 141.40078735 C-45.38534905 136.35187288 -45.47325083 131.30291627 -45.55883789 126.25390625 C-45.66686317 119.89002585 -45.78157732 113.52628861 -45.89834023 107.16256332 C-46.1402803 93.94219106 -46.35267732 80.72167354 -46.53643799 67.50036621 C-46.59292249 63.47516764 -46.65755369 59.45030012 -46.73309326 55.42541504 C-46.81047994 51.29902744 -46.86935205 47.17288148 -46.91073418 43.04597855 C-46.92812449 41.62529665 -46.95233294 40.20467599 -46.98451424 38.78425217 C-47.23113288 27.60978166 -46.04190216 17.07568281 -39.00390625 8.0078125 C-29.22988695 -1.89314212 -12.87185496 -0.02035277 0 0 Z M-24.62890625 22.1328125 C-25.64041077 26.31675589 -25.77700393 30.36264437 -25.77416992 34.64282227 C-25.77748322 35.38709787 -25.78079651 36.13137348 -25.78421021 36.8982029 C-25.79362054 39.37355657 -25.79553948 41.8488484 -25.796875 44.32421875 C-25.80078012 46.08344058 -25.80487872 47.84266198 -25.80915833 49.60188293 C-25.81841909 54.32309607 -25.81935893 59.04427463 -25.81738281 63.7654953 C-25.8164085 66.68857505 -25.81738187 69.61164943 -25.81860352 72.534729 C-25.8238278 106.10491007 -25.12761101 139.59447453 -23.62890625 173.1328125 C-2.28974046 173.25437234 19.03544168 173.00262158 40.37109375 172.6328125 C41.0611702 172.62085468 41.75124664 172.60889687 42.4622345 172.59657669 C51.09860285 172.44650438 59.73488447 172.29177682 68.37109375 172.1328125 C69.19772718 112.34994833 69.19772718 112.34994833 69.49447632 52.56266403 C69.49609689 50.44119561 69.49965355 48.31973785 69.50366211 46.19827271 C69.51048188 42.29753395 69.50814317 38.39683725 69.50390625 34.49609375 C69.5058902 33.34602844 69.50787415 32.19596313 69.50991821 31.01104736 C69.50680634 29.97784363 69.50369446 28.94463989 69.50048828 27.88012695 C69.49969269 26.98099075 69.49889709 26.08185455 69.49807739 25.1554718 C69.59516729 23.13641535 69.59516729 23.13641535 68.37109375 22.1328125 C65.47966224 22.03757345 62.61217311 22.00728223 59.72045898 22.01928711 C58.8132309 22.01914108 57.90600281 22.01899506 56.97128296 22.0188446 C53.9573939 22.01954409 50.94356582 22.02733816 47.9296875 22.03515625 C45.84603408 22.0370203 43.76238021 22.03844426 41.6787262 22.03944397 C36.18285929 22.04327016 30.68701862 22.0531013 25.19116211 22.06414795 C19.58773148 22.0743599 13.98429662 22.07894113 8.38085938 22.08398438 C-2.62240739 22.09472348 -13.62565464 22.11180111 -24.62890625 22.1328125 Z " fill="#326DC3" transform="translate(392.62890625,225.8671875)"/>
<path d="M0 0 C2.57586891 0.00316416 5.15059012 -0.02039485 7.72631836 -0.0456543 C17.27695567 -0.0828181 25.91853455 0.58254106 35.14624023 3.31567383 C35.93619385 3.5294165 36.72614746 3.74315918 37.54003906 3.96337891 C59.1222669 9.96367806 76.97550375 22.05247868 93.14624023 37.31567383 C94.15944336 38.24959961 94.15944336 38.24959961 95.19311523 39.20239258 C104.95911903 48.5191602 112.29274973 59.85462234 119.77124023 71.00317383 C120.85695313 72.61772461 120.85695313 72.61772461 121.96459961 74.26489258 C122.63555664 75.27551758 123.30651367 76.28614258 123.99780273 77.32739258 C124.60446777 78.239646 125.21113281 79.15189941 125.83618164 80.09179688 C127.14624023 82.31567383 127.14624023 82.31567383 127.14624023 84.31567383 C125.21253792 85.32299782 123.27413718 86.32130671 121.33374023 87.31567383 C120.25479492 87.87254883 119.17584961 88.42942383 118.06420898 89.00317383 C115.14624023 90.31567383 115.14624023 90.31567383 112.14624023 90.31567383 C111.81624023 91.30567383 111.48624023 92.29567383 111.14624023 93.31567383 C107.68124023 93.81067383 107.68124023 93.81067383 104.14624023 94.31567383 C102.13269944 90.91348422 100.3108253 87.72155322 98.82202148 84.05004883 C97.07056511 79.90638623 94.70729566 76.31307745 92.14624023 72.62817383 C91.66348633 71.93264404 91.18073242 71.23711426 90.68334961 70.52050781 C83.1795047 59.92290843 74.45718486 51.23982572 64.14624023 43.31567383 C63.51717773 42.7974707 62.88811523 42.27926758 62.23999023 41.74536133 C52.98797781 34.31940398 41.97810384 28.35924333 30.59936523 25.06958008 C28.14624023 24.31567383 28.14624023 24.31567383 26.19702148 23.31567383 C13.25210471 17.00348584 -3.90301949 18.59082736 -17.85375977 18.31567383 C-17.85375977 18.97567383 -17.85375977 19.63567383 -17.85375977 20.31567383 C-19.43350586 20.44522461 -19.43350586 20.44522461 -21.04516602 20.57739258 C-36.1946505 21.98549506 -49.21054266 26.51023022 -62.85375977 33.31567383 C-64.02422852 33.88930664 -65.19469727 34.46293945 -66.40063477 35.05395508 C-81.63892921 42.71969639 -95.16905092 52.97851357 -107.85375977 64.31567383 C-108.3784082 64.78392578 -108.90305664 65.25217773 -109.44360352 65.73461914 C-119.40386673 74.66597986 -128.52380135 83.81992622 -136.85375977 94.31567383 C-137.43899414 95.03368164 -138.02422852 95.75168945 -138.62719727 96.49145508 C-153.59988391 115.15459266 -166.75165166 137.21055414 -175.85375977 159.31567383 C-176.14508789 160.01772949 -176.43641602 160.71978516 -176.73657227 161.44311523 C-177.72395939 163.83387201 -178.69741134 166.22984617 -179.66625977 168.62817383 C-180.01664307 169.49176514 -180.36702637 170.35535645 -180.72802734 171.24511719 C-182.48054804 175.630214 -184.1197406 180.01207335 -185.53344727 184.51879883 C-185.7902124 185.33695068 -186.04697754 186.15510254 -186.31152344 186.99804688 C-186.7870621 188.54907613 -187.24641855 190.10518829 -187.68701172 191.66650391 C-188.66343229 194.86758697 -189.42768197 196.96137257 -192.03344727 199.12817383 C-195.58282829 200.62265005 -199.15006311 202.00271997 -202.79125977 203.25317383 C-203.53327637 203.51114746 -204.27529297 203.76912109 -205.03979492 204.03491211 C-223.34272406 210.31567383 -223.34272406 210.31567383 -228.85375977 210.31567383 C-227.6943835 201.72864525 -223.82614286 194.0485541 -219.87158203 186.41552734 C-218.81839849 184.24272053 -217.94703084 182.05099796 -217.08422852 179.79614258 C-205.41211025 150.36701746 -187.49296194 122.03515574 -167.85375977 97.31567383 C-167.38969727 96.72447754 -166.92563477 96.13328125 -166.44750977 95.52416992 C-158.40803325 85.3030625 -149.8791469 75.67369194 -140.85375977 66.31567383 C-139.95657227 65.37723633 -139.05938477 64.43879883 -138.13500977 63.47192383 C-132.40117676 57.59293049 -126.31309457 52.37882943 -119.85375977 47.31567383 C-119.25740723 46.83759277 -118.66105469 46.35951172 -118.04663086 45.86694336 C-109.65713301 39.14473889 -101.05797069 32.98063867 -91.91625977 27.31567383 C-90.63936279 26.52435059 -90.63936279 26.52435059 -89.33666992 25.71704102 C-73.87524039 16.31567383 -73.87524039 16.31567383 -67.85375977 16.31567383 C-67.85375977 15.65567383 -67.85375977 14.99567383 -67.85375977 14.31567383 C-41.11077766 4.27051836 -41.11077766 4.27051836 -28.85375977 2.31567383 C-28.07202393 2.15156006 -27.29028809 1.98744629 -26.48486328 1.81835938 C-17.65438055 0.0870279 -8.96321846 -0.02298479 0 0 Z " fill="#F8FAFC" transform="translate(499.853759765625,710.684326171875)"/>
<path d="M0 0 C4.03489599 -0.07687784 8.06990068 -0.13091588 12.10521412 -0.1805191 C13.97796073 -0.20923065 15.85057832 -0.24854744 17.7228632 -0.2990799 C20.2772872 -0.36709189 22.82967364 -0.39851099 25.38484097 -0.42125702 C26.12938471 -0.45063354 26.87392845 -0.48001007 27.64103413 -0.51027679 C29.71594143 -0.50682831 29.71594143 -0.50682831 33.24153042 0.18225861 C36.25950323 3.76230235 37.93624431 7.46749535 39.53059292 11.84241486 C39.91473354 12.88333282 40.29887417 13.92425079 40.69465542 14.99671173 C41.08137417 16.0685672 41.46809292 17.14042267 41.86653042 18.24475861 C42.65007788 20.38158984 43.43392145 22.51831253 44.21809292 24.65491486 C44.72977016 26.06655914 44.72977016 26.06655914 45.25178432 27.5067215 C45.91537599 29.30057967 46.62165297 31.07917977 47.36799526 32.84021759 C48.24153042 35.18225861 48.24153042 35.18225861 48.24153042 38.18225861 C35.78333958 38.36011226 23.32500623 38.52566092 10.86653042 38.68225861 C9.92212849 38.69413586 8.97772655 38.70601311 8.00470638 38.71825027 C-24.04192965 39.11764119 -56.08443719 39.27232174 -88.13346958 39.24475861 C-89.13605556 39.24390259 -90.13864155 39.24304657 -91.17160892 39.24216461 C-103.36724812 39.2309613 -115.56285984 39.21117494 -127.75846958 39.18225861 C-127.04448402 34.56259599 -125.91620659 30.49471512 -124.28971958 26.10413361 C-124.04934971 25.45148529 -123.80897984 24.79883698 -123.56132603 24.12641144 C-122.79866371 22.05982062 -122.02855051 19.99609478 -121.25846958 17.93225861 C-120.74108034 16.53138754 -120.22414877 15.13034736 -119.70768833 13.72913361 C-115.94757232 3.56046408 -115.94757232 3.56046408 -114.75846958 1.18225861 C-101.81083595 1.04929628 -88.86317982 0.91879133 -75.91549301 0.79110718 C-69.89805196 0.73169546 -63.88062039 0.67155388 -57.86320591 0.6095047 C-55.52946598 0.58554908 -53.19572575 0.56162319 -50.86198521 0.53772736 C-49.70821951 0.52587906 -48.55445381 0.51403076 -47.36572552 0.50182343 C-41.57576986 0.44352062 -35.7858433 0.39083478 -29.99574375 0.34900665 C-28.85985373 0.34078384 -27.7239637 0.33256104 -26.55365276 0.32408905 C-24.28537803 0.30773878 -22.01710181 0.29159299 -19.74882412 0.27565765 C-13.16471961 0.22464102 -6.58297747 0.13153551 0 0 Z " fill="#F8FAFC" transform="translate(658.758469581604,558.817741394043)"/>
<path d="M0 0 C0.99 0 1.98 0 3 0 C4.76171875 1.9765625 4.76171875 1.9765625 6.6875 4.625 C13.0919667 12.91796329 20.51281187 18.28303232 31 20 C32.83848168 20.07790887 34.67942827 20.10793615 36.51953125 20.09765625 C38.0519043 20.09282227 38.0519043 20.09282227 39.61523438 20.08789062 C41.19788086 20.07532227 41.19788086 20.07532227 42.8125 20.0625 C44.42415039 20.05573242 44.42415039 20.05573242 46.06835938 20.04882812 C48.71229683 20.03707729 51.35611952 20.02064787 54 20 C55.03844153 25.94678454 55.12972884 31.71804286 55.09765625 37.74609375 C55.0962413 38.75720718 55.09482635 39.76832062 55.09336853 40.81007385 C55.08779961 44.01924681 55.07525287 47.22834836 55.0625 50.4375 C55.05748098 52.62174378 55.05291878 54.80598866 55.04882812 56.99023438 C55.03869399 62.32687214 55.01911253 67.66335673 55 73 C43.12 73 31.24 73 19 73 C19 63 19 63 19.5 58.9375 C20.0565609 54.37861142 20.18385665 49.83772218 20.25 45.25 C20.27126953 44.51644287 20.29253906 43.78288574 20.31445312 43.02709961 C20.34338738 38.50560494 19.89125912 35.53976583 17 32 C12.01297707 30.33765902 6.82760219 30.65748838 1.60327148 30.5949707 C0.2442897 30.57334795 -1.11455122 30.53919261 -2.47290039 30.49243164 C-4.4381885 30.42546839 -6.40479661 30.40164372 -8.37109375 30.37890625 C-9.54599365 30.3538501 -10.72089355 30.32879395 -11.93139648 30.30297852 C-15.24460674 30.73904404 -15.24460674 30.73904404 -17.38769531 33.73217773 C-18.92804466 36.85416077 -19.48787769 38.49471985 -19.42578125 41.90625 C-19.41740234 42.81632812 -19.40902344 43.72640625 -19.40039062 44.6640625 C-19.37138672 45.59992188 -19.34238281 46.53578125 -19.3125 47.5 C-19.30283203 48.40492188 -19.29316406 49.30984375 -19.28320312 50.2421875 C-19.16038743 57.86744043 -18.54466878 65.37463701 -18 73 C-29.88 73 -41.76 73 -54 73 C-54 54.52 -54 36.04 -54 17 C-51.03 17.33 -48.06 17.66 -45 18 C-41.47813024 18.18125703 -37.96369539 18.18494664 -34.4375 18.1875 C-33.09655273 18.20586914 -33.09655273 18.20586914 -31.72851562 18.22460938 C-22.49432915 18.3541496 -22.49432915 18.3541496 -14.375 14.625 C-13.92125 14.08875 -13.4675 13.5525 -13 13 C-12.0925 12.46375 -11.185 11.9275 -10.25 11.375 C-6.4440841 8.96427023 -4.16946985 5.47142829 -1.61328125 1.828125 C-1.08089844 1.22484375 -0.54851563 0.6215625 0 0 Z " fill="#F8FAFC" transform="translate(692,299)"/>
<path d="M0 0 C0.18997904 32.46595645 0.18997904 32.46595645 -0.4375 44.625 C-0.47673584 45.39102539 -0.51597168 46.15705078 -0.55639648 46.94628906 C-1.32277438 59.93205495 -1.32277438 59.93205495 -5.1875 64.25 C-17.78839395 79.19421809 -28.53251137 95.53800191 -39.35571289 111.78515625 C-39.84590408 112.51749481 -40.33609528 113.24983337 -40.84114075 114.00436401 C-41.77276878 115.39639223 -42.70065473 116.79093403 -43.62431335 118.18826294 C-46.77467608 122.88733804 -46.77467608 122.88733804 -49 124 C-49.16303511 115.71520719 -49.28699 107.43109744 -49.3626852 99.14509106 C-49.39903747 95.2964229 -49.44824704 91.44886143 -49.52807617 87.60083008 C-49.60479491 83.87893815 -49.64612527 80.15810242 -49.6641407 76.43548012 C-49.67695868 75.02373968 -49.70198741 73.61204943 -49.7401104 72.20076561 C-50.00276513 62.0634316 -48.29115011 55.96275117 -42 48 C-40.99899816 46.6067504 -40.0008934 45.21140653 -39.0078125 43.8125 C-38.05181548 42.53794599 -37.09084729 41.26710585 -36.125 40 C-35.60744141 39.31631348 -35.08988281 38.63262695 -34.55664062 37.92822266 C-30.17497474 32.16950047 -25.6646687 26.53251404 -21 21 C-20.52530273 20.43506836 -20.05060547 19.87013672 -19.56152344 19.28808594 C-3.32489311 0 -3.32489311 0 0 0 Z " fill="#FBFCFD" transform="translate(161,674)"/>
<path d="M0 0 C0.39956497 5.74259392 0.68749639 11.47692268 0.87890625 17.23022461 C0.95874108 19.17990071 1.0674799 21.12863775 1.20703125 23.07495117 C2.30216391 38.75708983 2.30216391 38.75708983 -1.50827026 44.12460327 C-5.22017695 47.94446021 -9.44427317 50.84509475 -13.94667053 53.65426636 C-17.22371824 55.80201391 -20.12486033 58.35463625 -23.0625 60.9375 C-24.20171915 61.91939124 -25.34103007 62.90117603 -26.48046875 63.8828125 C-31.64224857 68.41304368 -36.62525294 73.13680781 -41.62890625 77.83984375 C-44.33238929 80.37929693 -47.04865817 82.9010367 -49.8125 85.375 C-50.68841797 86.16003906 -50.68841797 86.16003906 -51.58203125 86.9609375 C-53 88 -53 88 -55 88 C-55.30575209 80.63618167 -55.51499618 73.27401212 -55.65917969 65.90527344 C-55.71931137 63.40237277 -55.80104625 60.89988993 -55.90527344 58.3984375 C-56.7948684 36.48998114 -56.7948684 36.48998114 -52.57202148 31.27978516 C-49.72417152 28.58688869 -46.47411542 26.79728856 -43 25 C-41.52851043 23.96027038 -40.0693552 22.90263688 -38.62890625 21.8203125 C-37.27948663 20.91281475 -35.92392977 20.01437868 -34.5625 19.125 C-33.82386719 18.63668701 -33.08523437 18.14837402 -32.32421875 17.64526367 C-5.23909051 0 -5.23909051 0 0 0 Z " fill="#F8FAFC" transform="translate(236,621)"/>
<path d="M0 0 C2.05549145 0.00546607 4.11077402 -0.00003727 6.16625977 -0.00634766 C7.46241211 -0.00505859 8.75856445 -0.00376953 10.09399414 -0.00244141 C11.26921631 -0.00131348 12.44443848 -0.00018555 13.65527344 0.00097656 C16.33227539 0.13037109 16.33227539 0.13037109 17.33227539 1.13037109 C17.42531557 2.60391457 17.44973804 4.081877 17.44580078 5.55834961 C17.44567993 6.51245728 17.44555908 7.46656494 17.44543457 8.44958496 C17.4403186 9.45928345 17.43520264 10.46898193 17.42993164 11.50927734 C17.42892456 12.43220581 17.42791748 13.35513428 17.42687988 14.30603027 C17.42163033 17.76832311 17.4076692 21.23059829 17.39477539 24.69287109 C17.37415039 32.42724609 17.35352539 40.16162109 17.33227539 48.13037109 C-0.15772461 48.13037109 -17.64772461 48.13037109 -35.66772461 48.13037109 C-34.54257694 36.87889437 -34.54257694 36.87889437 -33.58178711 32.57958984 C-33.37457031 31.63937988 -33.16735352 30.69916992 -32.95385742 29.73046875 C-32.73568359 28.76931152 -32.51750977 27.8081543 -32.29272461 26.81787109 C-32.06939453 25.81546387 -31.84606445 24.81305664 -31.6159668 23.78027344 C-31.17337734 21.79886895 -30.72815503 19.81805034 -30.2800293 17.83789062 C-29.74852374 15.48765273 -29.22544718 13.13581147 -28.70678711 10.78271484 C-26.80110549 2.26375198 -26.80110549 2.26375198 -25.66772461 1.13037109 C-17.18232189 -0.0890537 -8.55307823 -0.02717586 0 0 Z " fill="#F8FAFC" transform="translate(665.667724609375,214.86962890625)"/>
<path d="M0 0 C0.66 0 1.32 0 2 0 C2 15.84 2 31.68 2 48 C1.34 48 0.68 48 0 48 C-0.21140625 48.66386719 -0.4228125 49.32773437 -0.640625 50.01171875 C-2.47777628 54.05028407 -5.07835131 57.28873145 -7.75 60.8125 C-20.18966277 77.65652783 -29.95567841 96.1611366 -39 115 C-39.66 115 -40.32 115 -41 115 C-41.20500657 107.60302813 -41.34383169 100.20680369 -41.43945312 92.80761719 C-41.47936662 90.29757314 -41.53371887 87.7877112 -41.60351562 85.27832031 C-42.02136521 69.85475492 -41.81313264 57.98083836 -33 45 C-32.50628906 44.19046875 -32.01257813 43.3809375 -31.50390625 42.546875 C-30.31938291 40.63705891 -29.06891063 38.81870562 -27.75 37 C-27.29455811 36.35466309 -26.83911621 35.70932617 -26.36987305 35.04443359 C-24.92931333 33.0174145 -23.46921491 31.00633165 -22 29 C-21.49355957 28.3080957 -20.98711914 27.61619141 -20.46533203 26.90332031 C-14.97972727 19.44565356 -9.37652722 12.09232555 -3.5234375 4.91796875 C-1.85268881 2.86911812 -1.85268881 2.86911812 0 0 Z " fill="#F6F8FB" transform="translate(308,756)"/>
<path d="M0 0 C1.77206192 0.00015919 3.54412846 0.00585754 5.31616211 0.01586914 C6.24698105 0.01728409 7.17779999 0.01869904 8.13682556 0.02015686 C11.12241777 0.02577367 14.10793615 0.03832899 17.09350586 0.05102539 C19.11238499 0.05603823 21.13126529 0.06060151 23.15014648 0.06469727 C28.11046158 0.07574856 33.07072118 0.09302444 38.03100586 0.11352539 C38.90049262 4.71494491 39.75419014 9.31894075 40.59448242 13.92578125 C40.88136136 15.48676851 41.17225811 17.04702372 41.4675293 18.60644531 C43.2878919 28.23764951 44.49890472 37.27573531 44.03100586 47.11352539 C32.84595425 47.95316154 21.74500855 48.24216629 10.53100586 48.17602539 C9.01408029 48.17098955 7.49715306 48.1664304 5.98022461 48.16235352 C2.33044946 48.15153775 -1.31926093 48.13439385 -4.96899414 48.11352539 C-4.99426359 41.43832199 -5.01182682 34.76313082 -5.02392578 28.08789062 C-5.02896739 25.81509948 -5.03580051 23.54231159 -5.04443359 21.26953125 C-5.05650675 18.01048988 -5.06222401 14.75149122 -5.06665039 11.49243164 C-5.07181168 10.4695253 -5.07697296 9.44661896 -5.08229065 8.39271545 C-5.08236618 7.45181564 -5.08244171 6.51091583 -5.08251953 5.54150391 C-5.08474014 4.70877457 -5.08696075 3.87604523 -5.08924866 3.01808167 C-4.86003554 -0.61212943 -3.8156543 0.1091394 0 0 Z " fill="#F9FBFC" transform="translate(707.968994140625,214.886474609375)"/>
<path d="M0 0 C0 8.58 0 17.16 0 26 C-2.000625 26.928125 -4.00125 27.85625 -6.0625 28.8125 C-7.44444612 29.45870446 -8.82599162 30.10576674 -10.20703125 30.75390625 C-12.68958721 31.91899526 -15.17361005 33.08048296 -17.66162109 34.23388672 C-29.13495687 39.55756275 -40.33556871 45.06760794 -51.14941406 51.64746094 C-51.87870117 52.08735352 -52.60798828 52.52724609 -53.359375 52.98046875 C-53.99327148 53.37129639 -54.62716797 53.76212402 -55.28027344 54.16479492 C-57 55 -57 55 -60 55 C-61.05063264 51.84810207 -61.12916367 49.60896792 -61.1328125 46.30078125 C-61.13410156 45.17349609 -61.13539063 44.04621094 -61.13671875 42.88476562 C-61.13285156 41.70591797 -61.12898437 40.52707031 -61.125 39.3125 C-61.12886719 38.15298828 -61.13273438 36.99347656 -61.13671875 35.79882812 C-61.1220844 22.92791705 -61.1220844 22.92791705 -60 18 C-58.234375 16.37109375 -58.234375 16.37109375 -55.75 15.4375 C-54.7496875 15.05335938 -53.749375 14.66921875 -52.71875 14.2734375 C-51.4915625 13.85320313 -50.264375 13.43296875 -49 13 C-48.27167969 12.73864258 -47.54335938 12.47728516 -46.79296875 12.20800781 C-36.49573606 8.51296973 -26.07585243 5.35807616 -15.5 2.5625 C-14.52708008 2.303479 -13.55416016 2.04445801 -12.55175781 1.77758789 C-11.63749023 1.54289795 -10.72322266 1.30820801 -9.78125 1.06640625 C-8.97751953 0.85959229 -8.17378906 0.65277832 -7.34570312 0.43969727 C-5 0 -5 0 0 0 Z " fill="#F8FAFC" transform="translate(317,593)"/>
<path d="M0 0 C0.02489435 4.00186193 0.04295127 8.00369328 0.05493164 12.00561523 C0.05993113 13.36434719 0.06673291 14.72307385 0.07543945 16.08178711 C0.08769842 18.04538585 0.09273487 20.00902541 0.09765625 21.97265625 C0.10289307 23.15093994 0.10812988 24.32922363 0.11352539 25.54321289 C-0.19985972 35.08562091 -0.19985972 35.08562091 -2.66723633 37.90527344 C-3.38161865 38.38512695 -4.09600098 38.86498047 -4.83203125 39.359375 C-5.62504639 39.91230225 -6.41806152 40.46522949 -7.23510742 41.03491211 C-8.08564697 41.60089111 -8.93618652 42.16687012 -9.8125 42.75 C-11.55855445 43.96974352 -13.30074575 45.19503544 -15.0390625 46.42578125 C-15.89016602 47.02729004 -16.74126953 47.62879883 -17.61816406 48.24853516 C-22.81024091 52.06648916 -27.34255667 56.55985574 -32 61 C-33.45115474 62.25832668 -34.90873463 63.50931391 -36.375 64.75 C-39.9903273 67.86718199 -42.94014018 71.34309436 -46 75 C-46.33 75 -46.66 75 -47 75 C-47.24889164 69.20197352 -47.42941786 63.40711071 -47.54931641 57.60498047 C-47.59933143 55.63567905 -47.66737241 53.66674386 -47.75439453 51.69873047 C-48.45459922 35.44574401 -48.45459922 35.44574401 -44.99316406 29.62573242 C-42.47527626 27.06587983 -39.95389893 25.03266285 -37 23 C-35.71513345 21.93272435 -34.4334477 20.86159734 -33.15625 19.78515625 C-31.94551017 18.86694526 -30.7266282 17.95937547 -29.5 17.0625 C-28.83782471 16.57233398 -28.17564941 16.08216797 -27.4934082 15.57714844 C-22.20618499 11.73211883 -16.74804266 8.18547663 -11.1875 4.75 C-10.41664063 4.27183838 -9.64578125 3.79367676 -8.8515625 3.30102539 C-8.13097656 2.86653076 -7.41039062 2.43203613 -6.66796875 1.984375 C-6.03141357 1.59991211 -5.3948584 1.21544922 -4.73901367 0.81933594 C-3 0 -3 0 0 0 Z " fill="#F9FBFC" transform="translate(379,699)"/>
<path d="M0 0 C1.18787109 -0.01313232 2.37574219 -0.02626465 3.59960938 -0.03979492 C13.20293865 -0.04845978 22.81934139 0.66467667 32.125 3.1875 C31.57776317 6.56212715 31.0701 8.26985 29.125 11.1875 C27.31933594 11.73999023 27.31933594 11.73999023 25.109375 11.99609375 C23.86716187 12.15368164 23.86716187 12.15368164 22.59985352 12.31445312 C21.70065186 12.41693359 20.8014502 12.51941406 19.875 12.625 C17.96177448 12.87009424 16.04902332 13.11891468 14.13671875 13.37109375 C12.65051025 13.56614502 12.65051025 13.56614502 11.13427734 13.76513672 C6.2951348 14.44432839 1.49261949 15.30217033 -3.3125 16.1875 C-4.23562988 16.35741455 -5.15875977 16.5273291 -6.10986328 16.70239258 C-12.36075759 17.87016055 -18.57405924 19.16112985 -24.78125 20.54296875 C-27.84567263 21.18139013 -30.90413919 21.66620619 -34 22.125 C-39.30927638 22.95657341 -44.15495203 24.5081896 -49.18359375 26.3828125 C-51.91652365 27.19991491 -54.04541215 27.24852975 -56.875 27.1875 C-56.90387512 23.54168313 -56.92175585 19.89589537 -56.9375 16.25 C-56.94587891 15.20908203 -56.95425781 14.16816406 -56.96289062 13.09570312 C-56.96772461 11.61166992 -56.96772461 11.61166992 -56.97265625 10.09765625 C-56.97789307 9.18121338 -56.98312988 8.26477051 -56.98852539 7.32055664 C-56.875 5.1875 -56.875 5.1875 -55.875 4.1875 C-37.57779626 0.22798615 -18.62195558 0.12714071 0 0 Z " fill="#F6F9FC" transform="translate(395.875,583.8125)"/>
<path d="M0 0 C6.36226353 1.27245271 12.67719866 2.57227066 19 4 C19 4.66 19 5.32 19 6 C19.57105469 6.14695312 20.14210938 6.29390625 20.73046875 6.4453125 C27.13015646 8.21565536 32.94088363 10.7213961 38.9296875 13.57421875 C41.51329881 14.77398736 44.07534654 15.83946299 46.75 16.8125 C50 18 50 18 51 19 C51.10150308 22.00926782 51.13857524 24.99082202 51.125 28 C51.13080078 29.23943359 51.13080078 29.23943359 51.13671875 30.50390625 C51.12799822 36.0763272 50.70215713 41.47190577 50 47 C49.27167969 46.70609375 48.54335938 46.4121875 47.79296875 46.109375 C46.09443758 45.43471367 44.38997208 44.77444346 42.67578125 44.140625 C38.2869984 42.48667047 34.37026204 40.68867765 30.4375 38.125 C25.33804837 34.92977398 20.01171812 33.05220458 14.32788086 31.18017578 C8.98151906 29.41331199 4.22242456 27.32107758 -1 25 C-0.67 16.75 -0.34 8.5 0 0 Z " fill="#F5F8FB" transform="translate(541,669)"/>
<path d="M0 0 C2.5 0.125 2.5 0.125 3.5 1.125 C3.94049018 9.48135784 3.33866595 17.81322141 2.5 26.125 C1.91734375 26.35574219 1.3346875 26.58648438 0.734375 26.82421875 C-12.89421259 32.24565375 -26.46206116 37.64525913 -39.1875 44.98828125 C-41.5 46.125 -41.5 46.125 -44.5 46.125 C-44.64860594 41.92592955 -44.75732637 37.72826021 -44.82958984 33.52734375 C-44.85971791 32.09933814 -44.90063103 30.67151694 -44.95263672 29.24414062 C-45.02564914 27.1883399 -45.05948862 25.13498787 -45.0859375 23.078125 C-45.1173584 21.84223633 -45.1487793 20.60634766 -45.18115234 19.33300781 C-44.5 16.125 -44.5 16.125 -41.67700195 13.78588867 C-38.29107756 12.0157785 -34.89657182 10.49561155 -31.3125 9.1875 C-30.63630615 8.93589111 -29.9601123 8.68428223 -29.26342773 8.42504883 C-22.79771902 6.09393476 -16.20000255 4.33739328 -9.5324707 2.68579102 C-6.22512908 1.86594004 -3.20001853 0.16000093 0 0 Z " fill="#F8FAFC" transform="translate(445.5,670.875)"/>
<path d="M0 0 C1.28910278 -0.0009668 1.28910278 -0.0009668 2.60424805 -0.00195312 C16.74450541 0.11950541 16.74450541 0.11950541 18.8125 2.1875 C18.89987645 4.04119611 18.91948153 5.89817541 18.91015625 7.75390625 C18.90693359 8.87861328 18.90371094 10.00332031 18.90039062 11.16210938 C18.88782227 12.93811523 18.88782227 12.93811523 18.875 14.75 C18.87048828 15.93787109 18.86597656 17.12574219 18.86132812 18.34960938 C18.84949675 21.29562226 18.83301287 24.24153681 18.8125 27.1875 C11.0625 27.3125 11.0625 27.3125 8.8125 26.1875 C7.17542883 26.09086923 5.53445055 26.05674383 3.89453125 26.0546875 C2.89357422 26.05275391 1.89261719 26.05082031 0.86132812 26.04882812 C-0.20666016 26.05333984 -1.27464844 26.05785156 -2.375 26.0625 C-3.99438477 26.06540039 -3.99438477 26.06540039 -5.64648438 26.06835938 C-13.8742302 26.11256816 -21.98974228 26.50435352 -30.1875 27.1875 C-30.1875 18.9375 -30.1875 10.6875 -30.1875 2.1875 C-20.07385477 0.95224562 -10.19063214 -0.00728748 0 0 Z " fill="#F3F7FB" transform="translate(501.1875,663.8125)"/>
<path d="M0 0 C0.91950439 -0.02634521 1.83900879 -0.05269043 2.78637695 -0.07983398 C7.0234567 0.47806142 9.58360471 3.0776208 12.26171875 6.24609375 C11.97520892 9.68421169 11.52738648 10.98780568 9.01171875 13.43359375 C-1.88268523 20.61399637 -16.3408143 20.57654838 -28.92578125 20.74609375 C-30.1080127 20.77654785 -31.29024414 20.80700195 -32.50830078 20.83837891 C-41.89050414 20.84242354 -41.89050414 20.84242354 -44.9765625 17.77734375 C-45.84861328 16.524375 -45.84861328 16.524375 -46.73828125 15.24609375 C-47.06828125 14.91609375 -47.39828125 14.58609375 -47.73828125 14.24609375 C-47.67578125 10.93359375 -47.67578125 10.93359375 -46.73828125 7.24609375 C-41.68697289 3.0732738 -37.48385057 2.12744049 -31.0859375 1.7109375 C-30.1028788 1.64647179 -30.1028788 1.64647179 -29.09996033 1.58070374 C-27.70893773 1.49055298 -26.31778287 1.40242369 -24.92651367 1.31616211 C-22.83925868 1.18599334 -20.75267138 1.04761065 -18.66601562 0.90820312 C-12.44971464 0.50320914 -6.22767835 0.16021885 0 0 Z " fill="#346FC4" transform="translate(637.73828125,569.75390625)"/>
<path d="M0 0 C3.18742115 -0.05865035 6.37470118 -0.09381259 9.5625 -0.125 C10.45775391 -0.14175781 11.35300781 -0.15851562 12.27539062 -0.17578125 C35.05835328 -0.3426894 56.18561382 16.04124292 72 31 C72.88171875 31.81017578 72.88171875 31.81017578 73.78125 32.63671875 C75 34 75 34 75 36 C70.58784261 35.56954562 67.72244346 34.28585891 63.93774414 32.05615234 C60.75882762 30.32350867 57.40478425 29.1474377 54 27.9375 C48.92472357 26.10476129 43.95027017 24.15706866 39 22 C37.16732339 21.24839667 35.33400419 20.49835803 33.5 19.75 C9.51142143 9.70478273 9.51142143 9.70478273 0 2 C0 1.34 0 0.68 0 0 Z " fill="#EAF1F8" transform="translate(491,751)"/>
<path d="M0 0 C15.51 0 31.02 0 47 0 C44.18317849 7.04205379 39.46732416 10.9870712 32.75 14.4375 C26.10740181 17.08765576 18.39103756 17.39374784 11.75 14.5625 C6.97695108 11.77487899 3.12688693 7.51569044 0 3 C0 2.01 0 1.02 0 0 Z " fill="#EFF4FA" transform="translate(708,284)"/>
<path d="M0 0 C4.01344641 0.55945011 6.30848226 1.9752605 9.578125 4.359375 C12.05636233 8.076731 12.11016288 11.05240169 11.578125 15.359375 C9.70905157 19.92822117 6.96223256 22.16732122 2.578125 24.359375 C-1.27076013 25.10432051 -4.74146947 25.26201322 -8.26171875 23.37109375 C-12.29394101 20.18672262 -14.14427003 17.48767974 -14.796875 12.484375 C-13.73443288 3.63069064 -8.15531743 -0.23845957 0 0 Z " fill="#3570C4" transform="translate(415.421875,357.640625)"/>
<path d="M0 0 C1.4342432 0.00503243 2.86848815 0.00959221 4.30273438 0.01367188 C7.76435998 0.02452241 11.22591822 0.0416876 14.6875 0.0625 C13.35658921 6.3755434 8.0016557 9.43207212 2.9375 13 C-2.13113061 14.65705232 -7.03192185 14.33293392 -12.3125 14.0625 C-14.1996875 14.000625 -14.1996875 14.000625 -16.125 13.9375 C-21.75736372 12.39136094 -26.29244453 8.03670902 -29.3125 3.0625 C-29.3125 2.4025 -29.3125 1.7425 -29.3125 1.0625 C-19.52489935 0.12889404 -9.81885473 -0.06087253 0 0 Z " fill="#F4F7FB" transform="translate(663.3125,283.9375)"/>
<path d="M0 0 C6.38985254 2.12995085 10.00273715 10.48916921 12.9375 16.25 C16.55874619 25.24394479 15.4126969 35.48638404 15 45 C14.34 45 13.68 45 13 45 C11.80859375 43.6015625 11.80859375 43.6015625 10.4375 41.625 C8.63014703 39.05972482 6.89126865 36.89712205 4.60546875 34.734375 C0.98446332 31.29014306 -1.66448715 28.71416565 -2.64453125 23.70703125 C-2.74180727 15.73924068 -1.45466403 7.81881916 0 0 Z " fill="#EFF4FA" transform="translate(613,708)"/>
<path d="M0 0 C1.61114433 -0.002062 1.61114433 -0.002062 3.25483704 -0.00416565 C5.01458107 0.00122726 5.01458107 0.00122726 6.80987549 0.00672913 C8.66880684 0.00651009 8.66880684 0.00651009 10.56529236 0.00628662 C13.95959922 0.00686376 17.3538452 0.0118778 20.74814129 0.01886058 C24.29689543 0.0251134 27.84565038 0.02569944 31.39440918 0.02688599 C38.11269278 0.02999361 44.8309601 0.03819934 51.54923654 0.04823548 C59.19851645 0.05941426 66.84779714 0.06491152 74.49708319 0.06993091 C90.23058849 0.08038242 105.96407754 0.09797086 121.6975708 0.12025452 C121.6975708 0.45025452 121.6975708 0.78025452 121.6975708 1.12025452 C120.48632538 1.13056198 119.27507996 1.14086945 118.02713013 1.15148926 C106.4695474 1.25033061 94.91200549 1.35314222 83.35449028 1.45959377 C77.4162937 1.51416715 71.47809204 1.56746251 65.53985596 1.61756897 C27.60888268 1.92918343 27.60888268 1.92918343 -10.3024292 3.12025452 C-10.58860107 3.75447327 -10.87477295 4.38869202 -11.1696167 5.04212952 C-12.52898462 7.53586652 -13.71323229 8.08457575 -16.3024292 9.12025452 C-14.80641959 5.31223007 -12.64179769 3.42600895 -9.3024292 1.12025452 C-6.17251198 0.08569564 -3.28276018 -0.00324383 0 0 Z " fill="#6C9DD6" transform="translate(639.3024291992188,193.87974548339844)"/>
<path d="M0 0 C1.6396875 -0.01836914 1.6396875 -0.01836914 3.3125 -0.03710938 C9.06644488 -0.04755843 13.9499731 0.22112205 19.375 2.1875 C19.375 2.5175 19.375 2.8475 19.375 3.1875 C17.76443726 3.17178955 17.76443726 3.17178955 16.12133789 3.15576172 C12.10135287 3.11929991 8.08138219 3.09650513 4.0612793 3.07763672 C2.32818129 3.06763839 0.5950999 3.05403527 -1.13793945 3.03662109 C-3.64278284 3.01209916 -6.14740136 3.00095504 -8.65234375 2.9921875 C-9.79666115 2.97670364 -9.79666115 2.97670364 -10.96409607 2.96090698 C-15.74570849 2.95993099 -19.96722144 3.58063018 -24.58106995 4.85452271 C-26.89113648 5.23085638 -28.41454635 4.89689897 -30.625 4.1875 C-29.31711261 3.69588275 -28.00328093 3.22008242 -26.6875 2.75 C-25.95660156 2.48316406 -25.22570312 2.21632812 -24.47265625 1.94140625 C-16.48713888 -0.17272935 -8.20536769 0.00487255 0 0 Z " fill="#C5D9EE" transform="translate(394.625,189.8125)"/>
<path d="M0 0 C0.66 0.33 1.32 0.66 2 1 C-7.9 10.9 -17.8 20.8 -28 31 C-28.66 30.67 -29.32 30.34 -30 30 C-10.64189189 8.75 -10.64189189 8.75 0 0 Z " fill="#D5E3F3" transform="translate(376,761)"/>
<path d="M0 0 C0.66 0.33 1.32 0.66 2 1 C-3.03634582 6.91113785 -8.32466745 12.50740784 -13.8125 18 C-14.57498047 18.77472656 -15.33746094 19.54945313 -16.12304688 20.34765625 C-16.85201172 21.07855469 -17.58097656 21.80945313 -18.33203125 22.5625 C-19.31780151 23.55443359 -19.31780151 23.55443359 -20.32348633 24.56640625 C-22 26 -22 26 -24 26 C-24 26.66 -24 27.32 -24 28 C-24.66 27.67 -25.32 27.34 -26 27 C-20.6598723 20.68141883 -14.93902752 14.81843257 -9.0625 9 C-8.18787109 8.12988281 -7.31324219 7.25976562 -6.41210938 6.36328125 C-4.27702551 4.23986451 -2.13962795 2.11883622 0 0 Z " fill="#5188CE" transform="translate(319,713)"/>
<path d="M0 0 C0 10.89 0 21.78 0 33 C-0.33 33 -0.66 33 -1 33 C-1.33 23.43 -1.66 13.86 -2 4 C-6.29 8.29 -10.58 12.58 -15 17 C-15.66 16.67 -16.32 16.34 -17 16 C-15.06327014 13.89511995 -13.12564859 11.79107304 -11.1875 9.6875 C-10.64029297 9.09259766 -10.09308594 8.49769531 -9.52929688 7.88476562 C-8.99755859 7.30791016 -8.46582031 6.73105469 -7.91796875 6.13671875 C-7.43094482 5.60780029 -6.9439209 5.07888184 -6.44213867 4.53393555 C-5.96623291 4.02773682 -5.49032715 3.52153809 -5 3 C-4.48606689 2.44030518 -3.97213379 1.88061035 -3.44262695 1.30395508 C-2 0 -2 0 0 0 Z " fill="#CBDDF0" transform="translate(161,674)"/>
<path d="M0 0 C0.66 0.33 1.32 0.66 2 1 C-6.91 9.91 -15.82 18.82 -25 28 C-25.66 27.67 -26.32 27.34 -27 27 C-18.54578299 17.4022174 -9.78468849 8.25412269 0 0 Z " fill="#548ACE" transform="translate(396,770)"/>
<path d="M0 0 C0.66 0.33 1.32 0.66 2 1 C0.89718873 2.27200971 -0.20730769 3.54255853 -1.3125 4.8125 C-1.92738281 5.52019531 -2.54226563 6.22789062 -3.17578125 6.95703125 C-5 9 -5 9 -6.59272766 10.38264465 C-9.10142051 13.26584478 -8.36031592 17.18109831 -8.29296875 20.82421875 C-8.28872391 21.68561966 -8.28447906 22.54702057 -8.28010559 23.43452454 C-8.26331248 26.18583431 -8.22565956 28.93641162 -8.1875 31.6875 C-8.17245396 33.5527238 -8.15876541 35.41795907 -8.14648438 37.28320312 C-8.11340693 41.85575098 -8.0616206 46.4277513 -8 51 C-8.99 51.495 -8.99 51.495 -10 52 C-10.24889164 46.20197352 -10.42941786 40.40711071 -10.54931641 34.60498047 C-10.59933143 32.63567905 -10.66737241 30.66674386 -10.75439453 28.69873047 C-11.49893323 11.41667334 -11.49893323 11.41667334 -7.72949219 6.41699219 C-5.27463 3.96213 -2.89442669 1.90764582 0 0 Z " fill="#B5CEEA" transform="translate(342,722)"/>
<path d="M0 0 C1 1 1 1 1.1328125 3.51953125 C1.11491551 11.06311298 0.75733266 18.49429243 0 26 C-0.33 26 -0.66 26 -1 26 C-1 18.08 -1 10.16 -1 2 C-3.64 2.33 -6.28 2.66 -9 3 C-5.94805196 0.2871573 -4.08353283 -0.44146301 0 0 Z " fill="#ACC8E7" transform="translate(448,671)"/>
<path d="M0 0 C0.66 0.33 1.32 0.66 2 1 C-2.76008307 6.5930976 -7.74595676 11.86877855 -13 17 C-13.66 16.67 -14.32 16.34 -15 16 C-10.13036358 10.52436438 -5.24944351 5.1148424 0 0 Z " fill="#CFDFF1" transform="translate(207,286)"/>
<path d="M0 0 C0.66 0.33 1.32 0.66 2 1 C-2.46351289 6.22325977 -7.0744893 11.20922972 -12 16 C-12.66 15.67 -13.32 15.34 -14 15 C-4.58997722 4.44191344 -4.58997722 4.44191344 0 0 Z " fill="#CADCF0" transform="translate(488,107)"/>
<path d="M0 0 C0.66 0.33 1.32 0.66 2 1 C1.25834595 1.55022827 1.25834595 1.55022827 0.50170898 2.11157227 C-2.58323098 4.71898414 -4.68890749 6.73323129 -5.67138672 10.73388672 C-5.91037674 13.81852537 -5.97014431 16.84397192 -5.9375 19.9375 C-5.95361328 21.00291016 -5.96972656 22.06832031 -5.98632812 23.16601562 C-6.02147588 25.77866548 -6.02519214 28.38735182 -6 31 C-6.33 31 -6.66 31 -7 31 C-7.20406408 26.9590828 -7.32788704 22.9194946 -7.4375 18.875 C-7.49615234 17.73289062 -7.55480469 16.59078125 -7.61523438 15.4140625 C-7.78524894 7.05906079 -7.78524894 7.05906079 -5.41064453 3.85644531 C-3.67323771 2.36723947 -1.98781093 1.12756806 0 0 Z " fill="#F6F9FC" transform="translate(189,649)"/>
<path d="M0 0 C1.20970459 0.00523682 2.41940918 0.01047363 3.66577148 0.01586914 C4.97094727 0.0190918 6.27612305 0.02231445 7.62084961 0.02563477 C9.00952213 0.03399138 10.39819401 0.04245634 11.78686523 0.05102539 C13.17944179 0.05603873 14.57202005 0.06060193 15.96459961 0.06469727 C19.38456394 0.07653105 22.80444367 0.09301659 26.22436523 0.11352539 C26.22436523 0.44352539 26.22436523 0.77352539 26.22436523 1.11352539 C16.98436523 1.11352539 7.74436523 1.11352539 -1.77563477 1.11352539 C-2.43563477 2.43352539 -3.09563477 3.75352539 -3.77563477 5.11352539 C-4.43563477 5.11352539 -5.09563477 5.11352539 -5.77563477 5.11352539 C-3.36800329 0.13775367 -3.36800329 0.13775367 0 0 Z " fill="#528ACE" transform="translate(679.775634765625,328.886474609375)"/>
<path d="M0 0 C0.66 0.33 1.32 0.66 2 1 C0.61240749 2.61130023 -0.78545623 4.21375841 -2.1875 5.8125 C-2.96480469 6.70582031 -3.74210937 7.59914062 -4.54296875 8.51953125 C-6.89417119 10.8931617 -9.06791184 12.43240047 -12 14 C-10.41332422 10.09714233 -7.86649519 7.66479018 -4.875 4.75 C-3.96492188 3.85796875 -3.05484375 2.9659375 -2.1171875 2.046875 C-1.41851562 1.37140625 -0.71984375 0.6959375 0 0 Z " fill="#C8DAEF" transform="translate(331,212)"/>
<path d="M0 0 C0.99 0.33 1.98 0.66 3 1 C-0.3 4.3 -3.6 7.6 -7 11 C-7.66 10.67 -8.32 10.34 -9 10 C-6.03 6.7 -3.06 3.4 0 0 Z " fill="#DAE7F4" transform="translate(153,680)"/>
<path d="M0 0 C5.28 0.33 10.56 0.66 16 1 C16 1.66 16 2.32 16 3 C10.26157749 3.20413361 5.39460953 3.27141454 0 1 C0 0.67 0 0.34 0 0 Z " fill="#B4CDEA" transform="translate(418,193)"/>
<path d="M0 0 C0.66 0.33 1.32 0.66 2 1 C0.92173635 2.27513763 -0.16285519 3.54492569 -1.25 4.8125 C-1.85328125 5.52019531 -2.4565625 6.22789062 -3.078125 6.95703125 C-4.92370398 8.91889671 -6.79945332 10.45669625 -9 12 C-8.45015228 8.12488273 -6.72444669 6.40423494 -3.9375 3.75 C-3.20402344 3.04359375 -2.47054688 2.3371875 -1.71484375 1.609375 C-1.14894531 1.07828125 -0.58304687 0.5471875 0 0 Z " fill="#D2E1F2" transform="translate(342,722)"/>
<path d="M0 0 C-2.79738782 1.5067748 -5.40322432 2.48224115 -8.5 3.1875 C-9.2528125 3.36667969 -10.005625 3.54585937 -10.78125 3.73046875 C-13.14833379 4.01801942 -14.74544015 3.72248395 -17 3 C-11.10261508 0.70657253 -6.33393082 -0.34548714 0 0 Z " fill="#A7C5E6" transform="translate(381,191)"/>
<path d="M0 0 C-1.15173355 2.46800047 -2.04783565 4.04783565 -4 6 C-4.45811675 7.97235333 -4.45811675 7.97235333 -4.625 10.125 C-4.74875 11.40375 -4.8725 12.6825 -5 14 C-5.33 14 -5.66 14 -6 14 C-6.62674095 4.87743733 -6.62674095 4.87743733 -4.125 1.375 C-2 0 -2 0 0 0 Z " fill="#538ACE" transform="translate(747,522)"/>
<path d="M0 0 C0.66 0.33 1.32 0.66 2 1 C0.88121617 2.17262904 -0.24523051 3.33795138 -1.375 4.5 C-2.00148437 5.1496875 -2.62796875 5.799375 -3.2734375 6.46875 C-5 8 -5 8 -7 8 C-5.50902342 4.2047869 -3.24299151 2.38957269 0 0 Z " fill="#D4E2F2" transform="translate(189,649)"/>
<path d="M0 0 C0.66 0.33 1.32 0.66 2 1 C0.35 2.98 -1.3 4.96 -3 7 C-3.99 6.67 -4.98 6.34 -6 6 C-4.02 4.02 -2.04 2.04 0 0 Z " fill="#B4CEEA" transform="translate(200,721)"/>
</svg>
